<svg width="92" height="92" viewBox="0 0 92 92" fill="none" xmlns="http://www.w3.org/2000/svg">
<path d="M59.6957 19.4712C54.5099 16.8706 48.7165 15.806 42.9524 16.3654C37.1893 16.9522 31.7028 19.1543 27.1457 22.7285C22.507 26.3332 19.0136 31.1923 17.0867 36.7401C16.0854 39.6119 15.5014 42.6067 15.387 45.6403L22.9792 45.3751C23.3048 39.7179 25.7071 34.3735 29.7263 30.3775C33.7454 26.3813 39.0875 23.9914 44.7512 23.7111C50.5514 23.3985 56.2636 25.2921 60.7453 29.0188C65.1992 32.7466 68.11 38.0155 68.8617 43.7729L76.4264 43.5087C75.642 35.2462 70.6292 24.9833 59.6957 19.4712ZM47.8816 39.2175C47.4075 39.84 46.7618 40.2757 45.9992 40.5226C45.2643 40.7686 44.4656 40.769 43.7132 40.5199C43.1583 40.4015 42.6535 40.1438 42.2265 39.7456C41.8004 39.3749 41.4806 38.8904 41.2973 38.3734C41.1139 37.8566 41.0663 37.2799 41.1572 36.7258C41.2479 36.172 41.4774 35.6406 41.8204 35.2155C42.4556 34.4773 43.3471 33.9778 44.3346 33.8608C45.3218 33.7438 46.2943 33.9852 47.0857 34.5635C47.3399 34.7474 47.5676 34.9597 47.7954 35.1721C48.0637 34.9699 48.3312 34.7403 48.6535 34.5087C48.2778 33.9985 47.7946 33.5747 47.234 33.2914C46.197 32.7767 45.0339 32.597 43.8845 32.8025C43.2812 32.8786 42.6828 33.0923 42.1422 33.3865C41.6025 33.7084 41.1484 34.1098 40.7796 34.5909C40.4108 35.0719 40.154 35.6042 40.0091 36.1875C39.8644 36.771 39.8579 37.3771 39.9607 37.9519C40.069 38.6918 40.3702 39.4248 40.8314 40.0146C41.2926 40.6044 41.9151 41.0784 42.6133 41.357C43.452 41.7134 44.3921 41.8181 45.2969 41.704C46.3962 41.6381 47.4536 41.1605 48.2814 40.4154C48.4949 40.2152 48.6521 39.9894 48.8654 39.7891L47.9072 39.1616C47.9072 39.1616 47.9081 39.1891 47.8816 39.2175ZM54.9197 41.2302L56.2402 41.1841L57.5194 38.3853L61.1779 38.2576L62.6769 40.9593L63.9697 40.9141C62.3503 37.9138 60.7592 34.9397 59.1405 31.9667C57.7333 35.0454 56.3261 38.1241 54.9197 41.2302ZM58.0577 37.2374C58.4405 36.3701 58.8518 35.5295 59.2346 34.6624C59.7045 35.4997 60.1469 36.3382 60.5884 37.149L58.0577 37.2374ZM27.7422 42.1792L29.0627 42.1331C29.4986 41.2091 29.9335 40.2574 30.3419 39.3344L34.0005 39.2066C34.4998 40.098 35 41.017 35.4995 41.9083L36.7923 41.8632L31.9621 32.8882C30.5559 35.9944 29.1485 39.0732 27.7422 42.1792ZM30.8528 38.1874C31.2356 37.3201 31.6469 36.4795 32.0562 35.584C32.5271 36.4488 32.9685 37.2596 33.4109 38.0981L30.8528 38.1874ZM55.8169 36.1589C55.9989 35.8496 56.1238 35.4872 56.1388 35.1286C56.1538 34.77 56.0854 34.3869 55.9362 34.0616C55.7873 33.7362 55.5567 33.4414 55.2728 33.2035C54.9892 32.9654 54.6534 32.812 54.2929 32.7419C53.8764 32.6463 53.4344 32.6065 52.9953 32.6496C52.1139 32.6527 51.2347 32.7111 50.327 32.7428C50.2719 32.7447 50.2169 32.7466 50.1894 32.7476L50.491 41.3848L51.6464 41.3445L51.511 37.466C51.8135 37.4555 52.0885 37.4459 52.3637 37.4363C52.9128 37.3894 53.4905 37.3692 54.0388 37.295C54.3955 37.2551 54.7491 37.1326 55.0735 36.956C55.3683 36.7254 55.6348 36.4681 55.8169 36.1589ZM54.8527 35.3663C54.7789 35.6167 54.6205 35.815 54.4053 35.9603C54.19 36.1054 53.9454 36.1967 53.6977 36.2054C52.9835 36.2578 52.2398 36.2563 51.4972 36.2822L51.4088 33.7515C52.1798 33.7521 52.9226 33.7262 53.6664 33.7277C53.8589 33.721 54.0532 33.7693 54.2212 33.8461C54.3892 33.9228 54.559 34.0546 54.6747 34.2157C54.7906 34.3769 54.8523 34.5676 54.8865 34.7592C54.9217 34.9783 54.9019 35.1993 54.8527 35.3663ZM37.479 41.8117L38.6618 41.7704L38.3602 33.133L37.1773 33.1743L37.479 41.8117Z" fill="#173F98"/>
<path d="M47.1881 69.8358C42.2964 70.1442 37.4033 68.8279 33.3423 66.1054C27.9853 62.5468 24.6725 57.595 23.3239 51.3076L15.6768 51.5746C17.7986 66.5931 31.7042 79.1345 48.9414 77.4585C64.8347 75.9395 75.6396 62.7832 76.4686 49.4517L68.8215 49.7188C68.1551 55.0851 65.6008 60.0216 61.6527 63.6848C57.7055 67.3754 52.5757 69.5374 47.1881 69.8358ZM44.0049 61.4918C44.6187 61.7182 45.2836 61.8327 45.9428 61.7822C46.603 61.7591 47.2575 61.571 47.8531 61.2748C48.3955 61.0356 48.8773 60.6331 49.2745 60.1786C49.6431 59.6974 49.9266 59.1368 50.044 58.5543C50.2589 57.6103 50.2253 56.6477 49.8899 55.7229C49.7352 55.2326 49.4712 54.7737 49.1268 54.3726C48.7822 53.9715 48.3581 53.6558 47.8828 53.4521C47.1827 53.1184 46.4067 52.9802 45.6374 53.0348C45.4723 53.0406 45.3074 53.0463 45.1423 53.0521C45.0322 53.0559 44.9507 53.0863 44.8406 53.0901C44.2098 53.1672 43.5858 53.4368 43.0483 53.8137C42.5105 54.1906 42.0877 54.701 41.8043 55.2618C41.392 56.0747 41.2586 56.9883 41.3445 57.8666C41.515 59.5957 42.3579 60.8608 44.0049 61.4918ZM44.5085 54.6165C45.0508 54.3772 45.6815 54.3001 46.2631 54.3899C46.8456 54.5073 47.4062 54.7906 47.8076 55.2449C48.3259 55.8878 48.6013 56.6769 48.5752 57.504C48.5489 58.3312 48.2183 59.1138 47.6333 59.7126C46.3808 60.9131 43.6488 60.7605 42.9848 58.305C42.921 58.0594 42.8849 57.8128 42.881 57.7029C42.7771 56.3019 43.3969 55.1234 44.5085 54.6165ZM37.4776 60.7007C37.1474 60.7122 36.7879 60.6697 36.4796 60.5152C36.1711 60.3607 35.9159 60.1493 35.7138 59.881C35.3697 60.2786 35.0255 60.6762 34.6813 61.0737C34.9679 61.3942 35.3342 61.6293 35.7251 61.7809C36.5069 62.0842 37.335 62.1378 38.1554 61.9714C39.4955 61.7043 40.345 60.7933 40.3824 59.4976C40.422 59.0556 40.3233 58.5907 40.0898 58.2135C39.8563 57.836 39.5146 57.5174 39.0952 57.3392C38.7318 57.1866 38.3419 57.0627 37.9796 56.9376C37.5622 56.8144 37.1429 56.6362 36.7235 56.4582C36.5271 56.3548 36.3837 56.1946 36.3221 56.0039C36.2604 55.8133 36.2527 55.5932 36.3284 55.3978C36.3786 55.2584 36.4564 55.118 36.5625 55.004C36.6688 54.8902 36.8043 54.8305 36.9399 54.7705C37.2928 54.6206 37.7044 54.5787 38.0934 54.6752C38.4822 54.7719 38.8191 54.9529 39.0772 55.2467C39.4214 54.8491 39.7666 54.4792 40.1106 54.0816C40.0252 54.0018 39.9684 53.9488 39.8848 53.9242C39.2083 53.4796 38.4019 53.2598 37.6051 53.3153C36.9175 53.3393 36.2366 53.5557 35.6439 53.9345C34.3247 54.8068 34.2709 57.2048 36.0032 57.9154C36.4225 58.0935 36.8665 58.1883 37.2849 58.3389C37.6473 58.4639 38.0107 58.6165 38.3474 58.7975C38.4604 58.8763 38.5742 58.9824 38.634 59.1181C38.7214 59.2526 38.7537 59.3892 38.7585 59.5268C38.7633 59.6642 38.7416 59.8303 38.6914 59.9698C38.6411 60.1091 38.535 60.2231 38.4287 60.3371C38.2438 60.5638 37.8625 60.6872 37.4776 60.7007ZM52.251 60.2398C53.6735 61.5397 55.305 61.7306 57.0738 61.1179C57.7263 60.8748 58.2611 60.4155 58.6271 59.852L57.3585 59.0149C57.3054 59.072 57.2787 59.1004 57.2532 59.1563C56.0937 60.6565 54.149 60.1735 53.3157 59.1836C53.0282 58.8357 52.8213 58.4298 52.6948 57.9659C52.5695 57.5297 52.5257 57.063 52.5918 56.5926C52.6504 55.902 52.9583 55.2577 53.4647 54.7718C54.264 54.0004 55.902 53.5851 57.016 54.7306C57.0445 54.7571 57.0729 54.7836 57.1004 54.7827L58.226 53.8896C57.9099 53.515 57.5144 53.2258 57.0664 53.0211C56.2554 52.664 55.3437 52.5856 54.4958 52.753C53.9475 52.8272 53.4317 53.038 52.9737 53.3293C52.5155 53.6209 52.1154 53.9927 51.8008 54.4443C51.1989 55.3468 50.9337 56.4302 51.0538 57.5C51.0626 58.5463 51.5098 59.5222 52.251 60.2398Z" fill="#173F98"/>
<path d="M79.6783 47.4664L79.6014 45.2642L12.4004 47.6109L12.4773 49.8131L79.6783 47.4664Z" fill="#173F98"/>
</svg>
