<svg width="177" height="128" viewBox="0 0 177 128" fill="none" xmlns="http://www.w3.org/2000/svg">
<g clip-path="url(#clip0_891_56615)">
<path d="M100.184 42.3342C99.8815 54.8126 91.8826 65.9091 81.0813 71.7013C75.8836 74.4884 70.1883 76.1834 64.3896 76.9835C58.4701 77.8001 51.6136 78.1887 46.0153 75.8731C42.111 74.2577 36.9487 69.2536 40.2136 64.6567C43.0862 60.6119 50.112 59.2088 54.363 61.3197C59.124 63.6837 60.182 69.7593 58.5888 74.4966C56.6886 80.1494 51.7584 84.7097 46.9818 88.0109C36.5275 95.2368 22.9595 97.6195 10.9018 94.0704C9.75181 93.7321 10.0936 91.8638 11.2625 92.1959C20.0373 94.6896 29.4289 94.1284 37.9655 90.6889C42.3162 88.9358 46.4089 86.4259 49.9137 83.2691C53.9277 79.6535 58.1467 74.663 57.4294 68.8979C56.6374 62.5354 50.3274 60.8823 45.0489 63.1992C41.9667 64.5521 39.8369 67.0561 41.8113 70.3852C43.4138 73.0878 46.6328 74.4886 49.5781 75.1209C59.0157 77.1487 70.4054 75.0763 79.0676 70.8212C89.9301 65.4855 98.4593 54.8591 98.9432 42.4371C98.9742 41.6405 100.204 41.5235 100.184 42.3342Z" fill="#151531"/>
<path d="M24.6664 89.7125C17.7256 90.5337 10.7798 91.3193 3.84725 92.2193C4.06318 91.5841 4.27853 90.9489 4.49417 90.3131C6.67205 92.7579 8.85967 95.1785 11.2104 97.4575C13.3725 99.5546 16.0789 101.373 17.9031 103.768C18.4792 104.525 17.4995 105.539 16.703 105.149C13.9119 103.782 11.5583 101.078 9.3732 98.9063C7.08823 96.6348 4.89178 94.2601 2.87128 91.7448C2.35206 91.0985 2.9484 90.1088 3.70087 90.0497C10.6599 89.5034 17.6119 88.8417 24.5653 88.2155C25.5259 88.1289 25.6173 89.6 24.6664 89.7125Z" fill="#151531"/>
</g>
<path d="M61.0342 22.3174C60.6009 22.241 60.2579 22.1128 60.0053 21.9329C59.7527 21.753 59.5758 21.5661 59.4746 21.3722C59.3865 21.1807 59.3518 21.0324 59.3703 20.9273C59.4259 20.6122 59.5428 20.4094 59.7213 20.319C59.8997 20.2287 60.2383 20.2274 60.7373 20.3154C61.0262 20.3664 61.4359 20.3845 61.9666 20.3697C62.5126 20.3441 63.1193 20.2819 63.7866 20.1829C64.4563 20.0708 65.1472 19.9151 65.8593 19.7157C66.5714 19.5164 67.2456 19.2629 67.882 18.9554C68.5184 18.6479 69.0698 18.2848 69.5363 17.8661C70.0182 17.4366 70.3615 16.9488 70.5661 16.4027C70.1992 16.2568 69.8211 16.136 69.4318 16.0403C69.0579 15.9337 68.6806 15.8469 68.2998 15.7797C67.1443 15.576 65.9471 15.4935 64.7082 15.5323C63.4716 15.558 62.2162 15.6141 60.9417 15.7008C60.8375 16.0615 60.7457 16.3906 60.6661 16.688C60.5866 16.9853 60.5102 17.3036 60.4369 17.6426C60.2493 18.4761 60.0524 19.0168 59.8462 19.2647C59.6555 19.5019 59.4682 19.6042 59.2844 19.5718C58.9955 19.5209 58.8024 19.3108 58.705 18.9416C58.6076 18.5725 58.6249 18.0136 58.7569 17.2652C59.1783 14.8754 59.7781 12.8555 60.5565 11.2056C61.3348 9.55571 62.2723 8.34681 63.369 7.57891C64.4656 6.81101 65.6902 6.5463 67.0427 6.78478C68.0012 6.9538 68.698 7.34066 69.1329 7.94538C69.581 8.5524 69.7193 9.34176 69.548 10.3134C69.4299 10.9831 69.189 11.6582 68.8253 12.3387C68.464 13.0061 68.0014 13.5947 67.4376 14.1046C67.8037 14.1014 68.1598 14.1168 68.5058 14.1508C68.8542 14.1716 69.1728 14.2074 69.4617 14.2584C70.4596 14.4343 71.2054 14.7351 71.699 15.1606C72.1926 15.5861 72.3827 16.1206 72.2692 16.764C72.1372 17.5124 71.8033 18.1779 71.2673 18.7603C70.7445 19.3451 70.0942 19.8464 69.3165 20.2644C68.5519 20.6847 67.7375 21.042 66.8732 21.3364C66.0113 21.6177 65.1806 21.8368 64.3812 21.9937C63.5819 22.1506 62.8806 22.2503 62.2773 22.2929C61.6849 22.3509 61.2705 22.3591 61.0342 22.3174ZM61.4177 14.0382C62.9215 14.0326 64.1121 13.8837 64.9895 13.5917C65.8669 13.2996 66.5141 12.8924 66.9311 12.3703C67.3504 11.8349 67.6249 11.1996 67.7546 10.4643C67.7962 10.2279 67.7997 9.97808 67.7649 9.7147C67.7324 9.43819 67.6208 9.18834 67.4299 8.96515C67.2391 8.74196 66.9336 8.59332 66.5135 8.51923C65.4367 8.32938 64.4833 8.66897 63.6531 9.53801C62.836 10.4094 62.0909 11.9094 61.4177 14.0382ZM75.2458 24.742C74.7468 24.6541 74.3737 24.3513 74.1265 23.8339C73.8947 23.3056 73.8448 22.6672 73.9767 21.9188C74.0995 21.2229 74.3917 20.5636 74.8535 19.941C75.3284 19.3207 75.9103 18.7464 76.5992 18.218C77.2881 17.6896 78.0203 17.2229 78.7957 16.8181C79.5734 16.4001 80.3384 16.0544 81.0907 15.7809C81.8561 15.5096 82.5473 15.3134 83.1644 15.192C83.7815 15.0707 84.2608 15.0401 84.6022 15.1003C84.786 15.1327 84.9301 15.1987 85.0344 15.2983C85.141 15.3848 85.1781 15.52 85.1456 15.7038C85.1248 15.822 85.0592 15.9255 84.9487 16.0144C84.9619 16.0167 84.975 16.019 84.9881 16.0213C85.277 16.0722 85.3913 16.2684 85.3311 16.6098C85.3103 16.728 85.2215 16.9628 85.0648 17.3143C84.9103 17.6526 84.7266 18.0805 84.5135 18.598C84.3004 19.1155 84.09 19.6945 83.8823 20.3348C83.6769 20.962 83.5152 21.6104 83.3971 22.2801C83.2976 22.8447 83.4644 23.1652 83.8978 23.2417C84.3836 23.3273 84.8957 23.3025 85.434 23.1673C85.9723 23.032 86.5056 22.8485 87.0339 22.6167C87.5645 22.3718 88.0545 22.1265 88.504 21.8808C88.9558 21.622 89.3393 21.4053 89.6544 21.2307C89.9695 21.0561 90.1862 20.9792 90.3043 21.0001C90.4094 21.0186 90.4955 21.0676 90.5627 21.1472C90.6299 21.2267 90.6508 21.3387 90.6253 21.4832C90.6022 21.6145 90.4292 21.8277 90.1064 22.1228C89.7836 22.4179 89.3673 22.7439 88.8576 23.1008C88.3479 23.4577 87.7879 23.7922 87.1778 24.1043C86.5677 24.4165 85.9571 24.654 85.3462 24.8171C84.7353 24.9802 84.1737 25.0165 83.6616 24.9262C83.2677 24.8568 82.9275 24.6749 82.6409 24.3807C82.3697 24.0756 82.1878 23.6103 82.095 22.9847C82.0153 22.3614 82.067 21.5311 82.2499 20.4938L82.3367 20.0014C81.5058 20.9515 80.6582 21.8039 79.794 22.5587C78.943 23.3157 78.1232 23.8955 77.3346 24.298C76.5592 24.7029 75.8629 24.8509 75.2458 24.742ZM83.9779 16.4524C83.9076 16.4671 83.8088 16.4903 83.6813 16.522C83.0287 16.6912 82.3382 16.9215 81.6099 17.2128C80.8947 17.5064 80.1846 17.8483 79.4794 18.2384C78.7874 18.6309 78.1511 19.0535 77.5703 19.5061C76.9895 19.9588 76.5061 20.4355 76.12 20.936C75.7338 21.4366 75.4945 21.9495 75.4019 22.4747C75.3718 22.6454 75.3814 22.7825 75.4309 22.886C75.4935 22.9918 75.6167 23.0609 75.8005 23.0933C76.0631 23.1396 76.4335 23.0357 76.9115 22.7815C77.3919 22.5142 77.9302 22.1488 78.5264 21.6853C79.1358 21.2241 79.7555 20.7038 80.3857 20.1244C81.0159 19.5451 81.621 18.9545 82.2009 18.3527C82.794 17.7533 83.3122 17.1948 83.7555 16.6772C83.8242 16.5946 83.8984 16.5196 83.9779 16.4524ZM91.5988 27.3818C90.9554 27.2684 90.4228 27.0255 90.001 26.6533C89.5947 26.2703 89.3085 25.8204 89.1423 25.3037C88.9762 24.787 88.9371 24.2792 89.0251 23.7802C89.2103 22.7297 89.5632 21.8036 90.0837 21.0018C90.6064 20.1869 91.2026 19.4932 91.8722 18.9208C92.5572 18.3375 93.2368 17.8616 93.9111 17.4931C94.5984 17.1269 95.2059 16.8685 95.7334 16.7178C96.2764 16.5563 96.6529 16.494 96.863 16.5311C97.2832 16.6052 97.4562 16.8523 97.3821 17.2725C97.3474 17.4695 97.1756 17.6761 96.8666 17.8924C96.56 18.0956 96.1731 18.332 95.7059 18.6016C95.2386 18.8712 94.737 19.1822 94.201 19.5345C93.6673 19.8736 93.1495 20.2765 92.6475 20.7431C92.1479 21.1965 91.7088 21.7284 91.3305 22.3386C90.9544 22.9357 90.6981 23.6216 90.5615 24.3963C90.4225 25.1842 90.6748 25.6348 91.3182 25.7483C91.9091 25.8525 92.5328 25.8474 93.1893 25.733C93.8589 25.6209 94.527 25.4408 95.1935 25.1928C95.8755 24.9339 96.5335 24.6573 97.1676 24.363C97.8017 24.0686 98.3798 23.7847 98.9019 23.5112C99.4263 23.2246 99.8657 22.9974 100.22 22.8298C100.575 22.6621 100.818 22.5899 100.949 22.613C101.212 22.6593 101.317 22.8269 101.266 23.1158C101.227 23.339 101.024 23.6078 100.657 23.9222C100.29 24.2366 99.8127 24.5654 99.2241 24.9084C98.6356 25.2514 97.9869 25.5906 97.2779 25.9259C96.5712 26.248 95.8638 26.5362 95.1555 26.7905C94.4496 27.0315 93.7815 27.2116 93.1513 27.3306C92.5365 27.4388 92.019 27.4559 91.5988 27.3818ZM108.584 31.1687C107.73 31.0182 106.978 30.6758 106.328 30.1414C105.69 29.6093 105.14 28.9706 104.675 28.2254C104.224 27.4824 103.84 26.7039 103.523 25.8898C103.222 25.065 102.972 24.2965 102.772 23.5844C102.362 24.6086 102.033 25.4374 101.786 26.0708C101.552 26.7065 101.365 27.1881 101.226 27.5156C101.1 27.8455 100.994 28.0637 100.908 28.1703C100.821 28.2769 100.725 28.3209 100.62 28.3024C100.331 28.2514 100.084 28.0453 99.8765 27.6838C99.6694 27.3224 99.6099 26.8922 99.6979 26.3932C99.7905 25.868 100.005 25.1882 100.342 24.354C100.681 23.5067 101.095 22.5778 101.585 21.5675C102.09 20.5463 102.646 19.5005 103.255 18.4299C103.866 17.3461 104.484 16.2975 105.109 15.2841C105.75 14.2598 106.374 13.334 106.98 12.5067C107.282 12.0996 107.523 11.8443 107.704 11.7408C107.898 11.6396 108.113 11.6098 108.349 11.6515C108.73 11.7187 108.889 11.9295 108.827 12.284C108.803 12.4153 108.739 12.5528 108.632 12.6965C108.539 12.8425 108.435 13.007 108.322 13.1901C107.983 13.7262 107.606 14.3298 107.19 15.0011C106.787 15.6747 106.371 16.3799 105.944 17.1168C105.529 17.856 105.129 18.591 104.742 19.3217C104.356 20.0525 104.014 20.7299 103.714 21.354C104.348 21.0597 105.081 20.7827 105.912 20.523C106.743 20.2634 107.593 20.0478 108.463 19.8762C109.335 19.6915 110.149 19.5643 110.906 19.4947C111.663 19.4251 112.278 19.4319 112.751 19.5153C113 19.5593 113.177 19.6716 113.28 19.8523C113.399 20.0222 113.442 20.1991 113.41 20.3829C113.384 20.5274 113.313 20.6637 113.196 20.7919C113.094 20.9094 112.902 20.9974 112.621 21.0562C111.701 21.2054 110.787 21.3623 109.878 21.5269C108.971 21.6785 108.02 21.8493 107.025 22.0394C106.046 22.2188 104.97 22.4487 103.796 22.7292C104.036 23.3672 104.326 24.0615 104.668 24.8122C105.012 25.5498 105.394 26.2603 105.815 26.9438C106.239 27.6142 106.692 28.1884 107.177 28.6664C107.663 29.1313 108.183 29.4124 108.734 29.5096C109.456 29.637 110.179 29.6087 110.902 29.4248C111.625 29.2408 112.307 28.982 112.948 28.6482C113.602 28.3168 114.181 27.9858 114.686 27.6551C115.194 27.3113 115.593 27.0433 115.884 26.8509C116.036 26.7559 116.169 26.6979 116.281 26.677C116.408 26.6454 116.518 26.6376 116.61 26.6538C116.793 26.6862 116.901 26.8067 116.932 27.0153C116.978 27.213 116.877 27.4049 116.627 27.5911C116.437 27.7472 116.144 27.9866 115.749 28.3095C115.354 28.6325 114.879 28.982 114.325 29.3583C113.787 29.7237 113.198 30.0667 112.56 30.3873C111.934 30.7102 111.276 30.9463 110.587 31.0955C109.908 31.2601 109.24 31.2845 108.584 31.1687ZM124.295 24.1098C124.221 24.53 124.017 24.9205 123.683 25.2812C123.351 25.6288 122.936 25.9483 122.437 26.2395C121.942 26.5177 121.403 26.768 120.822 26.9905C120.242 27.213 119.668 27.3962 119.101 27.5399C118.534 27.6837 118.021 27.7895 117.562 27.8576C117.367 28.3511 117.235 28.7949 117.165 29.1888C117.121 29.4383 117.149 29.626 117.249 29.7519C117.348 29.8778 117.523 29.9627 117.772 30.0067C118.324 30.1039 118.926 30.1085 119.577 30.0203C120.229 29.9322 120.905 29.7873 121.604 29.5856C122.303 29.3839 122.979 29.1579 123.632 28.9075C124.286 28.6572 124.883 28.4173 125.424 28.1878C125.979 27.9607 126.438 27.7776 126.801 27.6385C127.164 27.4994 127.398 27.4391 127.503 27.4576C127.66 27.4854 127.769 27.5588 127.83 27.6777C127.905 27.7858 127.932 27.9056 127.908 28.0369C127.89 28.1419 127.69 28.3165 127.308 28.5606C126.94 28.8071 126.451 29.0863 125.841 29.3985C125.233 29.6975 124.557 29.998 123.813 30.3001C123.069 30.6022 122.304 30.8734 121.517 31.1138C120.743 31.3564 120.002 31.5303 119.293 31.6354C118.597 31.7429 117.986 31.7503 117.461 31.6577C116.778 31.5373 116.291 31.1875 116.001 30.6082C115.71 30.029 115.66 29.201 115.85 28.1243C115.977 27.4021 116.198 26.6895 116.511 25.9866C116.838 25.286 117.224 24.6298 117.671 24.0181C118.133 23.3955 118.613 22.8574 119.113 22.404C119.628 21.9397 120.142 21.5971 120.655 21.3761C121.17 21.142 121.644 21.0632 122.078 21.1396C122.905 21.2854 123.514 21.6298 123.906 22.1727C124.298 22.7157 124.427 23.3614 124.295 24.1098ZM118.243 26.4139C118.694 26.2362 119.161 26.0477 119.643 25.8483C120.125 25.649 120.575 25.4373 120.994 25.2132C121.412 24.9892 121.761 24.7393 122.04 24.4635C122.334 24.1769 122.511 23.8629 122.571 23.5215C122.657 23.0357 122.437 22.7464 121.912 22.6538C121.584 22.5959 121.199 22.7447 120.757 23.1C120.331 23.4446 119.896 23.9162 119.452 24.5148C119.007 25.1135 118.605 25.7465 118.243 26.4139ZM135.361 24.5987C135.866 23.8077 136.356 22.987 136.831 22.1365C137.319 21.2884 137.777 20.4148 138.207 19.5157C138.332 19.2669 138.487 19.0777 138.672 18.9479C138.873 18.8073 139.085 18.7567 139.308 18.796C139.466 18.8238 139.587 18.9061 139.671 19.0428C139.768 19.1818 139.8 19.3498 139.765 19.5467C139.721 19.7962 139.546 20.2122 139.24 20.7946C138.948 21.3793 138.573 22.1189 138.118 23.0134C137.675 23.9102 137.201 24.9503 136.694 26.1336C136.203 27.3062 135.728 28.617 135.27 30.066C134.824 31.5174 134.454 33.0834 134.157 34.7642C134.092 35.1318 133.96 35.4199 133.761 35.6285C133.559 35.8502 133.347 35.9414 133.124 35.902C132.993 35.8789 132.874 35.824 132.767 35.7376C132.66 35.6511 132.583 35.475 132.535 35.2093C132.498 34.959 132.498 34.5732 132.536 34.0519C132.576 33.5174 132.675 32.8037 132.833 31.9108C132.953 31.228 133.123 30.493 133.343 29.706C132.547 30.6893 131.723 31.5255 130.87 32.2146C130.033 32.8929 129.248 33.3908 128.515 33.7083C127.795 34.0282 127.205 34.1476 126.746 34.0666C126.181 33.967 125.755 33.6956 125.468 33.2523C125.191 32.8244 125.118 32.2428 125.247 31.5075C125.361 30.8641 125.629 30.2276 126.051 29.5981C126.474 28.9685 126.992 28.3695 127.607 27.8009C128.224 27.2192 128.886 26.6862 129.595 26.2018C130.303 25.7174 130.998 25.3053 131.681 24.9653C132.379 24.6146 133.013 24.3608 133.582 24.2039C134.154 24.0339 134.604 23.9778 134.932 24.0357C135.063 24.0589 135.173 24.1257 135.262 24.2361C135.351 24.3465 135.384 24.4674 135.361 24.5987ZM134.997 25.1641C134.889 25.2398 134.761 25.3121 134.613 25.3808C134.466 25.4496 134.304 25.5226 134.128 25.5999C133.479 25.9051 132.758 26.2655 131.968 26.6811C131.192 27.086 130.434 27.548 129.692 28.0671C128.966 28.5754 128.346 29.1363 127.832 29.7496C127.318 30.3629 126.997 31.0307 126.869 31.7529C126.814 32.068 126.944 32.2534 127.259 32.309C127.692 32.3854 128.201 32.2652 128.784 31.9484C129.384 31.6209 130.024 31.138 130.705 30.4999C131.389 29.8487 132.094 29.0728 132.822 28.1721C133.551 27.2583 134.276 26.2556 134.997 25.1641ZM150.466 37.4976C149.901 37.3981 149.52 37.2158 149.323 36.9509C149.126 36.686 149.066 36.3369 149.142 35.9036C149.527 33.7239 150.322 31.5152 151.529 29.2774C152.738 27.0265 154.264 24.8247 156.106 22.6718C156.343 22.4022 156.521 22.2373 156.64 22.177C156.772 22.119 156.917 22.104 157.074 22.1318C157.258 22.1642 157.411 22.2588 157.532 22.4155C157.653 22.5723 157.694 22.7623 157.655 22.9855C157.634 23.1037 157.459 23.4046 157.13 23.8881C156.803 24.3586 156.385 24.9684 155.873 25.7177C155.362 26.467 154.807 27.3101 154.209 28.2471C153.626 29.1732 153.054 30.1488 152.495 31.1739C151.935 32.1989 151.448 33.2301 151.035 34.2674C151.416 33.8742 151.861 33.4586 152.372 33.0206C152.896 32.5849 153.445 32.1539 154.022 31.7274C154.598 31.301 155.172 30.9217 155.745 30.5895C156.332 30.2596 156.883 30.0116 157.4 29.8455C157.916 29.6793 158.372 29.631 158.766 29.7004C159.278 29.7907 159.686 30.0861 159.99 30.5866C160.31 31.0762 160.395 31.7478 160.244 32.6013C160.117 33.3235 159.789 34.0306 159.261 34.7228C158.735 35.4018 158.035 35.9958 157.16 36.5049C156.3 37.0032 155.304 37.3556 154.171 37.562C153.04 37.7552 151.805 37.7338 150.466 37.4976ZM150.808 36.0146C151.898 36.2068 152.922 36.1977 153.88 35.9875C154.837 35.7773 155.681 35.4454 156.411 34.992C157.156 34.5277 157.754 34.017 158.204 33.4601C158.67 32.8923 158.948 32.3524 159.038 31.8403C159.103 31.4726 159.011 31.2668 158.761 31.2228C158.459 31.1696 158.046 31.2457 157.523 31.4512C156.999 31.6567 156.42 31.9472 155.785 32.3227C155.163 32.7005 154.535 33.1177 153.899 33.5742C153.266 34.0177 152.674 34.4549 152.124 34.886C151.588 35.3193 151.149 35.6956 150.808 36.0146ZM162.497 44.8181C161.841 44.7023 161.245 44.5499 160.709 44.3607C160.185 44.187 159.676 43.9619 159.184 43.6855C158.688 43.4222 158.157 43.0982 157.588 42.7137C157.42 42.5893 157.276 42.4488 157.155 42.292C157.031 42.1484 156.983 41.9977 157.011 41.8402C157.046 41.6432 157.207 41.4551 157.496 41.2759C157.77 41.1075 158.011 41.0418 158.222 41.0788C158.445 41.1182 158.707 41.2456 159.007 41.461C159.321 41.6788 159.682 41.9321 160.092 42.2209C160.499 42.5229 160.958 42.8001 161.468 43.0526C161.992 43.3074 162.569 43.4904 163.199 43.6015C163.882 43.7219 164.575 43.553 165.279 43.0949C165.982 42.6368 166.618 41.9095 167.187 40.9131C167.753 39.9297 168.166 38.6962 168.428 37.2124C168.507 36.766 168.58 36.2713 168.649 35.7283C168.733 35.1745 168.809 34.5921 168.876 33.9811C168.44 34.6083 167.967 35.2221 167.455 35.8223C166.956 36.4248 166.449 36.9582 165.934 37.4225C165.432 37.8891 164.928 38.2471 164.424 38.4967C163.935 38.7354 163.468 38.8154 163.021 38.7367C162.457 38.6371 162.075 38.4209 161.876 38.0881C161.678 37.7552 161.632 37.2867 161.738 36.6827C161.849 36.0525 162.016 35.3778 162.237 34.6586C162.459 33.9395 162.708 33.2185 162.984 32.4955C163.276 31.7617 163.587 31.0719 163.918 30.4262C164.248 29.7804 164.576 29.2289 164.9 28.7716C165.078 28.5321 165.298 28.4355 165.56 28.4818C165.744 28.5143 165.904 28.644 166.04 28.8711C166.192 29.0873 166.241 29.3464 166.187 29.6484C166.146 29.8848 166.034 30.2104 165.853 30.6252C165.671 31.0399 165.453 31.5092 165.198 32.0329C164.944 32.5566 164.684 33.1066 164.42 33.6828C164.158 34.2459 163.924 34.8071 163.717 35.3663C163.512 35.9124 163.368 36.4218 163.285 36.8945C163.25 37.0915 163.364 37.2131 163.627 37.2594C163.771 37.2849 163.998 37.1895 164.307 36.9732C164.631 36.746 164.996 36.4448 165.4 36.0693C165.821 35.6831 166.248 35.2574 166.682 34.7924C167.131 34.3166 167.566 33.845 167.987 33.3776C168.41 32.8971 168.78 32.4545 169.095 32.0497C169.1 31.9424 169.111 31.8427 169.127 31.7508C169.143 31.6589 169.158 31.5736 169.172 31.4948C169.286 30.8514 169.422 30.4625 169.581 30.328C169.756 30.1828 169.954 30.1299 170.178 30.1692C170.558 30.2364 170.813 30.3692 170.94 30.5677C171.067 30.7662 171.094 31.0755 171.02 31.4957C170.992 31.6532 170.942 31.8205 170.871 31.9974C170.801 32.1611 170.692 32.399 170.542 32.7111C170.464 33.7669 170.385 34.7143 170.305 35.5531C170.238 36.3942 170.13 37.235 169.982 38.0753C169.702 39.6642 169.202 40.9977 168.484 42.0761C167.779 43.1567 166.91 43.9377 165.878 44.4191C164.858 44.9027 163.731 45.0357 162.497 44.8181Z" fill="#151531"/>
<defs>
<clipPath id="clip0_891_56615">
<rect width="96.4593" height="64" fill="white" transform="matrix(-0.5 0.866025 0.866025 0.5 48.2324 12)"/>
</clipPath>
</defs>
</svg>
