<svg width="124" height="140" viewBox="0 0 124 140" fill="none" xmlns="http://www.w3.org/2000/svg">
<g clip-path="url(#clip0_944_120528)">
<path d="M100.952 54.3343C100.649 66.8127 92.6502 77.9091 81.8489 83.7013C76.6512 86.4884 70.9559 88.1834 65.1571 88.9835C59.2377 89.8001 52.3811 90.1888 46.7829 87.8731C42.8786 86.2578 37.7163 81.2537 40.9811 76.6568C43.8537 72.612 50.8796 71.2089 55.1306 73.3197C59.8916 75.6838 60.9495 81.7593 59.3564 86.4967C57.4562 92.1495 52.526 96.7097 47.7494 100.011C37.2951 107.237 23.7271 109.62 11.6694 106.07C10.5194 105.732 10.8612 103.864 12.0301 104.196C20.8049 106.69 30.1965 106.128 38.7331 102.689C43.0838 100.936 47.1765 98.426 50.6813 95.2692C54.6953 91.6536 58.9142 86.6631 58.1969 80.8979C57.4049 74.5355 51.0949 72.8824 45.8165 75.1993C42.7343 76.5521 40.6045 79.0561 42.5789 82.3853C44.1814 85.0879 47.4004 86.4887 50.3457 87.121C59.7833 89.1488 71.173 87.0763 79.8352 82.8213C90.6977 77.4856 99.2269 66.8591 99.7108 54.4372C99.7418 53.6406 100.972 53.5236 100.952 54.3343Z" fill="#151531"/>
<path d="M25.434 101.713C18.4932 102.534 11.5474 103.319 4.61483 104.219C4.83075 103.584 5.04611 102.949 5.26174 102.313C7.43963 104.758 9.62725 107.179 11.978 109.458C14.1401 111.555 16.8465 113.373 18.6707 115.768C19.2467 116.525 18.2671 117.54 17.4706 117.149C14.6795 115.782 12.3259 113.078 10.1408 110.906C7.8558 108.635 5.65936 106.26 3.63886 103.745C3.11964 103.099 3.71598 102.109 4.46845 102.05C11.4275 101.504 18.3795 100.842 25.3328 100.216C26.2935 100.129 26.3848 101.6 25.434 101.713Z" fill="#151531"/>
</g>
<path d="M10.6793 40.8905C10.246 40.967 9.87992 40.9638 9.58102 40.8811C9.28212 40.7984 9.05197 40.6833 8.89056 40.5358C8.74229 40.3859 8.65889 40.2585 8.64036 40.1534C8.5848 39.8383 8.62538 39.6077 8.76211 39.4618C8.89884 39.3158 9.21669 39.1988 9.71566 39.1109C10.0045 39.0599 10.3958 38.9368 10.8893 38.7414C11.3937 38.5306 11.9425 38.2646 12.5358 37.9434C13.1267 37.609 13.7226 37.2264 14.3236 36.7955C14.9246 36.3646 15.4715 35.8959 15.9643 35.3892C16.4572 34.8826 16.8512 34.3528 17.1463 33.7998C17.4522 33.2314 17.608 32.6556 17.6134 32.0725C17.2188 32.0608 16.8221 32.0766 16.4236 32.1198C16.0359 32.1476 15.6516 32.195 15.2708 32.2622C14.1153 32.4659 12.9621 32.7979 11.8112 33.2581C10.6579 33.7051 9.49738 34.1873 8.32947 34.7046C8.3549 35.0792 8.38112 35.4199 8.40811 35.7265C8.4351 36.0331 8.47213 36.3583 8.5192 36.702C8.62798 37.5493 8.6279 38.1248 8.51896 38.4283C8.42082 38.7164 8.27984 38.8766 8.09601 38.909C7.80713 38.96 7.55381 38.8286 7.33604 38.515C7.11828 38.2014 6.94341 37.6704 6.81143 36.9219C6.39005 34.5321 6.2629 32.4289 6.42999 30.6123C6.59707 28.7957 7.06456 27.339 7.83246 26.2424C8.60036 25.1457 9.66054 24.4781 11.013 24.2396C11.9716 24.0706 12.7586 24.1959 13.3741 24.6153C14.0028 25.0325 14.4028 25.7269 14.5741 26.6986C14.6922 27.3683 14.6967 28.0851 14.5877 28.8489C14.4764 29.5997 14.243 30.311 13.8876 30.9829C14.2306 30.8547 14.5705 30.7474 14.9072 30.661C15.2417 30.5614 15.5533 30.4861 15.8422 30.4352C16.8402 30.2592 17.6438 30.2867 18.2532 30.5178C18.8626 30.7488 19.224 31.186 19.3374 31.8294C19.4694 32.5779 19.3832 33.3174 19.0788 34.0481C18.7875 34.7764 18.3479 35.4699 17.76 36.1287C17.1853 36.7851 16.5422 37.3994 15.8307 37.9717C15.117 38.5308 14.4114 39.0208 13.7138 39.4416C13.0163 39.8624 12.3914 40.196 11.8391 40.4423C11.3023 40.6995 10.9157 40.8489 10.6793 40.8905ZM8.20806 32.9795C9.61927 32.4599 10.6872 31.9128 11.4117 31.3382C12.1363 30.7637 12.6052 30.1598 12.8185 29.5264C13.0294 28.88 13.0701 28.1891 12.9404 27.4538C12.8987 27.2174 12.8165 26.9815 12.6937 26.7459C12.5687 26.4971 12.3783 26.3005 12.1227 26.1561C11.867 26.0116 11.5291 25.9764 11.1089 26.0505C10.0322 26.2404 9.25239 26.8856 8.7695 27.9861C8.29974 29.0844 8.11259 30.7488 8.20806 32.9795ZM24.8631 38.3083C24.3642 38.3963 23.91 38.2395 23.5007 37.8378C23.1022 37.4206 22.837 36.8378 22.705 36.0894C22.5823 35.3934 22.6315 34.674 22.8525 33.931C23.0866 33.1857 23.437 32.4469 23.9036 31.7148C24.3702 30.9826 24.8986 30.2937 25.4888 29.6481C26.0767 28.9894 26.6773 28.4028 27.2906 27.8885C27.9171 27.3719 28.4995 26.951 29.0379 26.6259C29.5763 26.3008 30.0162 26.1082 30.3576 26.048C30.5415 26.0155 30.6994 26.0283 30.8315 26.0863C30.9612 26.1311 31.0423 26.2454 31.0747 26.4292C31.0956 26.5474 31.0693 26.6671 30.9959 26.7884C31.009 26.7861 31.0222 26.7837 31.0353 26.7814C31.3242 26.7305 31.4987 26.8757 31.5589 27.2171C31.5797 27.3353 31.5766 27.5863 31.5495 27.9702C31.5201 28.3409 31.4938 28.8059 31.4706 29.3651C31.4473 29.9243 31.4476 30.5403 31.4715 31.213C31.493 31.8726 31.5628 32.5373 31.6809 33.2069C31.7804 33.7716 32.0469 34.0157 32.4802 33.9393C32.966 33.8536 33.4388 33.6552 33.8984 33.344C34.358 33.0328 34.7963 32.6779 35.2135 32.2794C35.6283 31.8678 36.0049 31.4697 36.3433 31.0851C36.6793 30.6874 36.9655 30.3526 37.2019 30.0807C37.4383 29.8089 37.6156 29.6625 37.7337 29.6417C37.8388 29.6232 37.9365 29.6398 38.0268 29.6916C38.1172 29.7433 38.1751 29.8414 38.2006 29.9859C38.2237 30.1172 38.1341 30.3767 37.9317 30.7644C37.7293 31.1521 37.4496 31.6008 37.0927 32.1105C36.7358 32.6202 36.324 33.1261 35.8575 33.6281C35.3909 34.1301 34.8984 34.5621 34.3801 34.9243C33.8618 35.2865 33.3466 35.5127 32.8345 35.603C32.4406 35.6725 32.0586 35.618 31.6887 35.4395C31.3295 35.2456 30.9994 34.8705 30.6983 34.3144C30.4102 33.7559 30.1748 32.958 29.9919 31.9207L29.905 31.4283C29.4492 32.6053 28.9443 33.6962 28.3903 34.701C27.8495 35.7035 27.2775 36.5287 26.6741 37.1767C26.084 37.8223 25.4803 38.1995 24.8631 38.3083ZM30.2335 27.5321C30.1724 27.5699 30.0875 27.6255 29.9785 27.6989C29.4232 28.0811 28.8531 28.5336 28.2683 29.0565C27.6967 29.577 27.1463 30.1411 26.6171 30.7489C26.1011 31.3544 25.6476 31.9691 25.2567 32.5932C24.8658 33.2172 24.5745 33.8304 24.3829 34.4328C24.1912 35.0353 24.1417 35.5991 24.2343 36.1243C24.2644 36.295 24.3204 36.4206 24.4023 36.5009C24.4973 36.5789 24.6367 36.6017 24.8205 36.5693C25.0831 36.523 25.3956 36.2987 25.7579 35.8963C26.1179 35.4808 26.4987 34.9533 26.9005 34.3139C27.3153 33.6721 27.7198 32.9712 28.1138 32.2112C28.5078 31.4513 28.8744 30.6894 29.2136 29.9255C29.5659 29.1594 29.8618 28.4573 30.1013 27.8194C30.1377 27.7182 30.1817 27.6224 30.2335 27.5321ZM41.1328 35.1958C40.4894 35.3093 39.9059 35.2633 39.3822 35.0577C38.8694 34.8368 38.4466 34.5119 38.1137 34.0832C37.7809 33.6545 37.5705 33.1906 37.4825 32.6917C37.2973 31.6412 37.3121 30.6502 37.5269 29.7188C37.7395 28.7742 38.0625 27.9184 38.4959 27.1515C38.9401 26.3692 39.416 25.6895 39.9235 25.1126C40.4442 24.5334 40.9266 24.0828 41.3708 23.7608C41.8257 23.4233 42.1583 23.2361 42.3684 23.199C42.7885 23.1249 43.0357 23.298 43.1098 23.7182C43.1445 23.9151 43.0537 24.1681 42.8374 24.477C42.6188 24.7728 42.336 25.1273 41.9892 25.5404C41.6423 25.9536 41.2773 26.4174 40.8941 26.9317C40.5087 27.433 40.1598 27.9886 39.8477 28.5988C39.5333 29.1958 39.3026 29.8457 39.1558 30.5485C39.0066 31.2383 39.0003 31.9705 39.1369 32.7452C39.2759 33.533 39.667 33.8702 40.3104 33.7568C40.9013 33.6526 41.4856 33.4345 42.0634 33.1024C42.6544 32.7681 43.2206 32.3704 43.7621 31.9093C44.3144 31.4329 44.8381 30.9479 45.3333 30.4544C45.8284 29.9609 46.2746 29.4964 46.6716 29.0608C47.0664 28.6121 47.4016 28.2484 47.6774 27.9696C47.9532 27.6908 48.1567 27.5398 48.288 27.5167C48.5507 27.4704 48.7074 27.5917 48.7584 27.8805C48.7977 28.1038 48.6988 28.4258 48.4616 28.8467C48.2245 29.2677 47.888 29.7399 47.4523 30.2635C47.0166 30.7871 46.523 31.3277 45.9715 31.8853C45.4176 32.4298 44.8514 32.9426 44.2728 33.4237C43.6919 33.8917 43.1257 34.2893 42.5742 34.6168C42.0334 34.9287 41.553 35.1218 41.1328 35.1958ZM58.3885 32.9452C57.535 33.0957 56.7113 33.0311 55.9173 32.7514C55.1365 32.4694 54.4005 32.0576 53.7093 31.5161C53.0312 30.9722 52.4041 30.372 51.828 29.7154C51.2627 29.0433 50.7646 28.4068 50.3337 27.8059C50.298 28.9088 50.2724 29.8001 50.2569 30.4798C50.2545 31.1572 50.244 31.6735 50.2254 32.0288C50.2199 32.3818 50.1948 32.6232 50.15 32.7529C50.1052 32.8827 50.0302 32.9568 49.9252 32.9753C49.6363 33.0263 49.3328 32.9173 49.0146 32.6485C48.6964 32.3797 48.4933 31.9958 48.4053 31.4968C48.3127 30.9716 48.2819 30.2594 48.3129 29.3604C48.3417 28.4482 48.4132 27.4337 48.5277 26.3168C48.653 25.1845 48.8184 24.0113 49.0241 22.7972C49.2274 21.5699 49.4496 20.3731 49.6907 19.2069C49.9427 18.0252 50.212 16.9419 50.4987 15.9572C50.6432 15.4714 50.7827 15.1489 50.9171 14.9898C51.0646 14.8284 51.2566 14.7269 51.4929 14.6852C51.8737 14.6181 52.0954 14.7618 52.1579 15.1163C52.1811 15.2476 52.1671 15.399 52.1161 15.5705C52.0783 15.7396 52.0373 15.9296 51.9932 16.1405C51.8588 16.7599 51.7108 17.4562 51.5492 18.2293C51.4008 19.0001 51.2516 19.8049 51.1017 20.6437C50.9649 21.4802 50.84 22.3077 50.7271 23.1264C50.6142 23.9452 50.5238 24.699 50.4557 25.3879C50.9509 24.8945 51.5445 24.3836 52.2366 23.8554C52.9288 23.3272 53.6541 22.8337 54.4126 22.375C55.1689 21.9032 55.8907 21.5052 56.5782 21.1809C57.2656 20.8566 57.8457 20.6527 58.3184 20.5694C58.5679 20.5254 58.7722 20.5706 58.9313 20.705C59.1012 20.824 59.2023 20.9754 59.2348 21.1592C59.2602 21.3037 59.2397 21.4562 59.1733 21.6168C59.1177 21.762 58.9678 21.9103 58.7237 22.0617C57.9103 22.5165 57.1047 22.9767 56.3067 23.4424C55.5065 23.8949 54.6715 24.3806 53.8017 24.8995C52.9428 25.403 52.01 25.9871 51.0035 26.652C51.4468 27.1696 51.9573 27.7227 52.5349 28.3113C53.1103 28.8868 53.7126 29.4237 54.3421 29.922C54.9692 30.4071 55.592 30.7914 56.2107 31.075C56.827 31.3454 57.4109 31.432 57.9624 31.3348C58.6846 31.2074 59.3539 30.9337 59.9703 30.5136C60.5867 30.0935 61.139 29.617 61.6273 29.0842C62.1286 28.549 62.5601 28.0397 62.9216 27.5562C63.2808 27.0596 63.5643 26.6711 63.7721 26.3908C63.8826 26.2495 63.9869 26.1498 64.085 26.0919C64.1939 26.0186 64.2943 25.9738 64.3863 25.9576C64.5701 25.9252 64.7122 26.0016 64.8126 26.187C64.9238 26.357 64.894 26.5721 64.7233 26.8323C64.5981 27.044 64.405 27.3691 64.1439 27.8078C63.8827 28.2465 63.5563 28.7373 63.1647 29.2802C62.7838 29.8077 62.3481 30.3313 61.8576 30.851C61.3802 31.3684 60.8429 31.8152 60.2458 32.1913C59.6642 32.5781 59.0451 32.8295 58.3885 32.9452ZM70.7385 20.9383C70.8126 21.3584 70.7542 21.7952 70.5634 22.2486C70.3702 22.6888 70.0894 23.131 69.7209 23.575C69.3501 24.006 68.9299 24.4253 68.4602 24.8331C67.9906 25.2408 67.5139 25.6092 67.0304 25.9381C66.5468 26.2671 66.1011 26.542 65.6933 26.7628C65.6785 27.2935 65.7059 27.7557 65.7753 28.1497C65.8193 28.3991 65.9097 28.566 66.0464 28.6502C66.1831 28.7344 66.3762 28.7545 66.6257 28.7105C67.1772 28.6133 67.7441 28.4118 68.3265 28.106C68.9089 27.8002 69.4941 27.433 70.0819 27.0044C70.6697 26.5758 71.2279 26.1322 71.7562 25.6735C72.2846 25.2148 72.7639 24.785 73.1942 24.3842C73.6376 23.9811 74.0061 23.6521 74.2996 23.3972C74.5931 23.1424 74.7924 23.0057 74.8975 22.9872C75.0551 22.9594 75.1825 22.9911 75.2798 23.0822C75.3879 23.158 75.4536 23.2615 75.4767 23.3928C75.4952 23.4978 75.367 23.7303 75.092 24.0902C74.8301 24.4478 74.4658 24.8775 73.9993 25.3795C73.5304 25.8684 72.9981 26.3819 72.4025 26.9202C71.807 27.4585 71.1805 27.9751 70.5231 28.4701C69.8789 28.9628 69.2416 29.3798 68.6113 29.7211C67.9941 30.0601 67.4229 30.2759 66.8977 30.3685C66.2149 30.4889 65.6379 30.3266 65.1669 29.8816C64.6958 29.4367 64.3653 28.6758 64.1754 27.5991C64.0481 26.8769 64.0115 26.132 64.0657 25.3642C64.133 24.5942 64.2717 23.8454 64.4819 23.1178C64.7029 22.3748 64.9707 21.7048 65.2851 21.1078C65.6104 20.4954 65.9761 19.9976 66.3825 19.6146C66.7865 19.2184 67.2051 18.9821 67.6385 18.9057C68.4657 18.7598 69.1562 18.875 69.7099 19.2512C70.2637 19.6275 70.6065 20.1898 70.7385 20.9383ZM65.8395 25.1733C66.2025 24.852 66.5764 24.5153 66.9611 24.1632C67.3458 23.811 67.6965 23.4581 68.0132 23.1044C68.33 22.7507 68.5722 22.3966 68.7398 22.0421C68.9183 21.6722 68.9774 21.3165 68.9172 20.9751C68.8316 20.4892 68.5261 20.2926 68.0009 20.3852C67.6726 20.4431 67.3617 20.7146 67.0681 21.1996C66.7854 21.6692 66.5377 22.2611 66.3252 22.9756C66.1127 23.69 65.9508 24.4226 65.8395 25.1733ZM81.3036 17.6131C81.5077 16.6971 81.6874 15.7583 81.8428 14.7967C82.0113 13.8328 82.1435 12.855 82.2394 11.8633C82.2719 11.5868 82.353 11.3558 82.4828 11.1705C82.6234 10.9697 82.8053 10.8496 83.0285 10.8103C83.1861 10.7825 83.3278 10.8184 83.4537 10.9181C83.5927 11.0154 83.6796 11.1625 83.7143 11.3595C83.7583 11.609 83.7362 12.0597 83.6481 12.7116C83.5731 13.3611 83.4745 14.1841 83.3523 15.1804C83.2433 16.1745 83.1531 17.3141 83.0819 18.5993C83.0215 19.8691 83.0236 21.2632 83.0883 22.7818C83.1661 24.2979 83.3532 25.8964 83.6495 27.5771C83.7143 27.9448 83.6888 28.2607 83.5729 28.5248C83.4593 28.8021 83.2909 28.9604 83.0677 28.9998C82.9364 29.0229 82.8059 29.0121 82.6761 28.9673C82.5464 28.9225 82.4135 28.7834 82.2776 28.5502C82.1572 28.3277 82.0255 27.965 81.8827 27.4622C81.7376 26.9462 81.5863 26.2418 81.4288 25.3489C81.3085 24.6661 81.217 23.9173 81.1546 23.1024C80.7427 24.2988 80.2541 25.3665 79.6885 26.3056C79.1338 27.2293 78.5664 27.9657 77.9863 28.5148C77.4193 29.0616 76.906 29.3755 76.4464 29.4565C75.8818 29.5561 75.3887 29.4467 74.967 29.1284C74.5608 28.821 74.2928 28.2996 74.1632 27.5642C74.0497 26.9208 74.0838 26.2311 74.2654 25.4951C74.447 24.759 74.7294 24.0187 75.1126 23.2742C75.4935 22.5165 75.9339 21.789 76.4337 21.0916C76.9335 20.3942 77.4461 19.7691 77.9714 19.2161C78.5075 18.6477 79.0162 18.1925 79.4974 17.8504C79.9763 17.4952 80.3799 17.2886 80.7082 17.2307C80.8395 17.2076 80.9658 17.2327 81.087 17.3061C81.2083 17.3795 81.2805 17.4818 81.3036 17.6131ZM81.1553 18.2689C81.0795 18.377 80.9841 18.4886 80.869 18.6036C80.7539 18.7187 80.6269 18.8427 80.4878 18.9755C79.9818 19.4844 79.4283 20.0694 78.8273 20.7305C78.2372 21.3761 77.6825 22.0696 77.1633 22.8111C76.655 23.537 76.2641 24.2761 75.9906 25.0284C75.717 25.7806 75.6439 26.5179 75.7713 27.2401C75.8269 27.5552 76.0122 27.685 76.3274 27.6294C76.7607 27.553 77.1975 27.2661 77.6378 26.7688C78.089 26.256 78.5254 25.5833 78.9473 24.7507C79.3668 23.905 79.7643 22.9346 80.1398 21.8394C80.5131 20.7311 80.8515 19.5409 81.1553 18.2689ZM99.9093 24.5679C99.3447 24.6675 98.9245 24.6265 98.6488 24.445C98.3731 24.2634 98.197 23.956 98.1206 23.5227C97.7363 21.343 97.7285 18.9953 98.0973 16.4797C98.4637 13.951 99.1442 11.3602 100.139 8.70717C100.269 8.37275 100.38 8.15689 100.471 8.05958C100.575 7.95996 100.706 7.89625 100.864 7.86847C101.048 7.83606 101.224 7.87277 101.391 7.97861C101.559 8.08445 101.662 8.24898 101.702 8.4722C101.722 8.59038 101.661 8.93292 101.517 9.49983C101.371 10.0536 101.186 10.77 100.962 11.6489C100.738 12.5278 100.505 13.5099 100.263 14.595C100.032 15.6648 99.8285 16.7769 99.653 17.9316C99.4775 19.0863 99.3731 20.2217 99.3397 21.3378C99.563 20.8381 99.8396 20.2951 100.17 19.7089C100.513 19.1204 100.882 18.5273 101.277 17.9295C101.673 17.3318 102.083 16.7788 102.508 16.2706C102.946 15.7602 103.379 15.3385 103.808 15.0057C104.237 14.6728 104.648 14.4717 105.042 14.4022C105.554 14.3119 106.039 14.4499 106.496 14.816C106.964 15.1668 107.273 15.7689 107.424 16.6224C107.551 17.3446 107.485 18.1212 107.225 18.9522C106.963 19.7701 106.508 20.5679 105.86 21.3456C105.223 22.1079 104.407 22.7797 103.413 23.3612C102.417 23.9295 101.249 24.3318 99.9093 24.5679ZM99.7241 23.0572C100.814 22.865 101.773 22.5063 102.601 21.9812C103.429 21.4561 104.108 20.8557 104.639 20.1799C105.181 19.4887 105.568 18.8045 105.8 18.1271C106.044 17.4343 106.12 16.8319 106.03 16.3198C105.965 15.9521 105.808 15.7903 105.559 15.8343C105.257 15.8875 104.895 16.1003 104.473 16.4725C104.051 16.8447 103.606 17.3158 103.138 17.8858C102.683 18.4534 102.235 19.0604 101.794 19.7069C101.35 20.3401 100.944 20.9534 100.575 21.5465C100.219 22.1373 99.9351 22.6409 99.7241 23.0572ZM113.719 27.3319C113.063 27.4477 112.45 27.5082 111.883 27.5135C111.33 27.5297 110.776 27.4921 110.218 27.4009C109.663 27.3228 109.052 27.2003 108.386 27.0334C108.186 26.9739 108.002 26.8912 107.835 26.7854C107.669 26.6927 107.573 26.5675 107.545 26.41C107.51 26.213 107.598 25.9809 107.808 25.7137C108.008 25.4619 108.212 25.3175 108.422 25.2805C108.646 25.2411 108.935 25.2713 109.291 25.371C109.66 25.4684 110.087 25.5827 110.57 25.7141C111.056 25.8586 111.582 25.9622 112.148 26.0248C112.728 26.0851 113.332 26.0597 113.963 25.9486C114.645 25.8282 115.239 25.4324 115.743 24.7613C116.248 24.0902 116.597 23.1893 116.79 22.0585C116.986 20.9409 116.953 19.6402 116.691 18.1564C116.612 17.71 116.512 17.2199 116.391 16.6862C116.281 16.137 116.153 15.5639 116.007 14.9668C115.812 15.7052 115.577 16.4439 115.301 17.1831C115.038 17.9199 114.744 18.5945 114.419 19.207C114.107 19.8171 113.756 20.3257 113.368 20.7326C112.99 21.1242 112.578 21.3593 112.131 21.438C111.567 21.5376 111.134 21.4649 110.834 21.22C110.533 20.9752 110.33 20.5507 110.224 19.9467C110.112 19.3164 110.038 18.6255 110 17.874C109.962 17.1225 109.95 16.3597 109.962 15.5858C109.986 14.7964 110.042 14.0418 110.132 13.322C110.221 12.6021 110.34 11.9719 110.489 11.4313C110.574 11.1455 110.748 10.9794 111.01 10.9331C111.194 10.9007 111.389 10.9679 111.594 11.1348C111.81 11.2862 111.945 11.5129 111.998 11.8149C112.04 12.0513 112.047 12.3954 112.018 12.8472C111.989 13.2991 111.945 13.8146 111.885 14.3939C111.824 14.9732 111.769 15.5787 111.717 16.2105C111.664 16.8292 111.636 17.4367 111.633 18.0329C111.627 18.6161 111.666 19.144 111.749 19.6167C111.784 19.8137 111.933 19.889 112.195 19.8427C112.34 19.8172 112.52 19.65 112.737 19.3411C112.964 19.0167 113.203 18.609 113.455 18.1178C113.718 17.6111 113.973 17.0651 114.222 16.4797C114.482 15.8788 114.729 15.2868 114.965 14.7037C115.198 14.1074 115.394 13.5652 115.552 13.0771C115.52 12.9744 115.496 12.8771 115.48 12.7852C115.464 12.6932 115.449 12.6079 115.435 12.5291C115.321 11.8857 115.316 11.4736 115.42 11.2929C115.534 11.0967 115.703 10.979 115.926 10.9396C116.307 10.8725 116.591 10.9104 116.779 11.0533C116.966 11.1962 117.097 11.4777 117.171 11.8979C117.199 12.0555 117.21 12.2297 117.203 12.4204C117.193 12.5981 117.172 12.8592 117.138 13.2036C117.426 14.2224 117.675 15.1397 117.887 15.9553C118.112 16.7687 118.298 17.5955 118.446 18.4359C118.726 20.0247 118.713 21.4486 118.407 22.7075C118.114 23.9642 117.565 24.9952 116.759 25.8007C115.967 26.6039 114.953 27.1143 113.719 27.3319Z" fill="#151531"/>
<defs>
<clipPath id="clip0_944_120528">
<rect width="96.4593" height="64" fill="white" transform="matrix(-0.5 0.866025 0.866025 0.5 49 24)"/>
</clipPath>
</defs>
</svg>
