<svg width="27" height="28" viewBox="0 0 27 28" fill="none" xmlns="http://www.w3.org/2000/svg">
<path d="M19.2599 11.8793C19.6907 14.3352 18.3365 16.0549 15.8112 16.5025C13.8819 16.8445 12.2597 16.2644 11.4968 14.9064C11.4049 14.7429 11.387 14.5479 11.4472 14.3702C11.5075 14.1926 11.6401 14.0486 11.8122 13.9757L12.9416 13.4974C13.2103 13.3836 13.5207 13.4622 13.7042 13.69C14.0416 14.1089 14.5897 14.343 15.3108 14.2152C16.3401 14.0328 16.8991 13.265 16.7128 12.2027L16.0303 8.31182L12.0768 9.01258C11.7209 9.07567 11.3814 8.83672 11.3186 8.47887L11.1563 7.5536C11.0935 7.19574 11.3312 6.85448 11.6872 6.79138L17.5215 5.75725C17.8774 5.69416 18.2169 5.9331 18.2797 6.29097L19.2599 11.8793ZM24.2068 4.05484C23.7388 1.38653 21.2075 -0.39514 18.5532 0.0753519L8.04787 1.93743C6.7732 2.16337 5.64002 2.88909 4.8976 3.9549L0.882618 9.71898C0.140214 10.7848 -0.150595 12.1034 0.0741624 13.3848L1.92653 23.9452C2.39457 26.6135 4.92579 28.3951 7.58017 27.9247L18.0855 26.0626C19.3601 25.8366 20.4933 25.1109 21.2357 24.0451L25.2507 18.281C25.9931 17.2152 26.2839 15.8966 26.0592 14.6152L24.2068 4.05484ZM24.1488 15.0246C24.4296 16.6256 23.3661 18.1523 21.7735 18.4346L11.1999 20.3088C9.60729 20.5911 8.08854 19.5221 7.80772 17.9211L5.9433 7.29207C5.66249 5.69109 6.72592 4.16439 8.31854 3.8821L18.8922 2.00791C20.4848 1.72562 22.0035 2.79462 22.2843 4.3956L24.1488 15.0246Z" fill="white"/>
</svg>
