<svg width="62" height="66" viewBox="0 0 62 66" fill="none" xmlns="http://www.w3.org/2000/svg">
<path d="M45.0756 27.6591C46.2607 33.2345 43.2883 37.2714 37.5251 38.4964C33.1221 39.4323 29.3508 38.2373 27.4905 35.1963C27.2666 34.8303 27.2099 34.3862 27.334 33.9756C27.4581 33.5649 27.7513 33.2253 28.1406 33.0451L30.6958 31.8619C31.3037 31.5804 32.0229 31.7351 32.4624 32.2407C33.2705 33.1707 34.5479 33.6614 36.1934 33.3116C38.5427 32.8123 39.7651 31.0136 39.2524 28.602L37.3749 19.7687L28.3524 21.6865C27.5399 21.8591 26.7413 21.3405 26.5687 20.5281L26.1222 18.4275C25.9495 17.6151 26.4681 16.8165 27.2805 16.6438L40.5952 13.8136C41.4076 13.641 42.2062 14.1596 42.3789 14.972L45.0756 27.6591ZM55.8109 9.38871C54.5233 3.33097 48.5688 -0.535976 42.5111 0.751637L18.5363 5.84762C15.6272 6.46596 13.083 8.21462 11.4632 10.7088L2.70339 24.1977C1.08362 26.692 0.521035 29.7275 1.13939 32.6365L6.23535 56.6113C7.52297 62.669 13.4775 66.5359 19.5353 65.2483L43.51 60.1523C46.4191 59.534 48.9634 57.7854 50.5831 55.2912L59.3429 41.8022C60.9627 39.308 61.5252 36.2725 60.907 33.3635L55.8109 9.38871ZM56.5527 34.4519C57.3253 38.0866 55.0051 41.6593 51.3705 42.4319L27.2398 47.561C23.6052 48.3336 20.0324 46.0134 19.2598 42.3788L14.1307 18.2481C13.3581 14.6135 15.6783 11.0407 19.3129 10.2682L43.4437 5.13903C47.0782 4.36648 50.651 6.68662 51.4236 10.3213L56.5527 34.4519Z" fill="#6868F7"/>
</svg>
