<svg width="76" height="76" viewBox="0 0 76 76" fill="none" xmlns="http://www.w3.org/2000/svg">
<path d="M39.5166 2.02268L40.5609 5.66421L44.3469 5.79653L41.2063 7.91506L42.2504 11.5566L39.2651 9.22442L36.1244 11.3427L37.4199 7.78278L34.4348 5.45034L38.2208 5.58243L39.5166 2.02268Z" fill="#FFCB00"/>
<path d="M37.333 64.5519L38.3773 68.1933L42.1633 68.3257L39.0227 70.4442L40.0668 74.0859L37.0815 71.7537L33.9408 73.8719L35.2363 70.312L32.2512 67.9796L36.0372 68.1116L37.333 64.5519Z" fill="#FFCB00"/>
<path d="M69.6689 34.3933L70.7133 38.0349L74.4992 38.1672L71.3587 40.2857L72.4027 43.9273L69.4174 41.5951L66.2767 43.7134L67.5723 40.1535L64.5871 37.8211L68.3731 37.9532L69.6689 34.3933Z" fill="#FFCB00"/>
<path d="M7.14158 32.2099L8.18592 35.8514L11.9719 35.9837L8.83133 38.1023L9.87538 41.7438L6.89009 39.4117L3.74938 41.5299L5.04491 37.97L2.0598 35.6376L5.84576 35.7697L7.14158 32.2099Z" fill="#FFCB00"/>
<path d="M66.0527 18.5888L67.0971 22.2304L70.883 22.3627L67.7425 24.4812L68.7865 28.1228L65.8012 25.7906L62.6605 27.9089L63.956 24.349L60.9709 22.0166L64.7569 22.1486L66.0527 18.5888Z" fill="#FFCB00"/>
<path d="M54.9756 6.72745L56.0199 10.369L59.8059 10.5013L56.6653 12.6198L57.7094 16.2614L54.7241 13.9293L51.5834 16.0475L52.8789 12.4876L49.8938 10.1552L53.6797 10.2873L54.9756 6.72745Z" fill="#FFCB00"/>
<path d="M21.8135 59.837L22.8578 63.4785L26.6437 63.6109L23.5032 65.7294L24.5473 69.371L21.562 67.0388L18.4213 69.1571L19.7168 65.5972L16.7317 63.2647L20.5176 63.3968L21.8135 59.837Z" fill="#FFCB00"/>
<path d="M10.7549 47.9653L11.7992 51.6068L15.5851 51.7392L12.4446 53.8577L13.4887 57.4993L10.5034 55.1671L7.36266 57.2854L8.65819 53.7255L5.67309 51.393L9.45904 51.5251L10.7549 47.9653Z" fill="#FFCB00"/>
<path d="M11.8476 16.696L12.892 20.3375L16.6779 20.4698L13.5374 22.5883L14.5814 26.2299L11.5961 23.8978L8.45544 26.016L9.75097 22.4561L6.76586 20.1237L10.5518 20.2558L11.8476 16.696Z" fill="#FFCB00"/>
<path d="M64.9609 49.8582L66.0053 53.4998L69.7912 53.6321L66.6507 55.7506L67.6947 59.3923L64.7094 57.0601L61.5687 59.1783L62.8642 55.6184L59.8791 53.286L63.6651 53.4181L64.9609 49.8582Z" fill="#FFCB00"/>
<path d="M23.706 5.63553L24.7504 9.27706L28.5363 9.40938L25.3958 11.5279L26.4398 15.1695L23.4545 12.8373L20.3138 14.9556L21.6094 11.3957L18.6243 9.06325L22.4102 9.19534L23.706 5.63553Z" fill="#FFCB00"/>
<path d="M53.083 60.9289L54.1273 64.5704L57.9133 64.7028L54.7727 66.8213L55.8168 70.4629L52.8315 68.1307L49.6908 70.249L50.9863 66.6891L48.0012 64.3566L51.7872 64.4887L53.083 60.9289Z" fill="#FFCB00"/>
<path d="M50.0781 33.8234L26.6898 33.0067C24.6903 32.9369 23.0127 34.5012 22.9429 36.5007L22.3401 53.7632C22.2703 55.7627 23.8346 57.4403 25.8341 57.5101L49.2224 58.3268C51.2219 58.3967 52.8995 56.8323 52.9693 54.8328L53.5721 37.5703C53.642 35.5708 52.0777 33.8932 50.0781 33.8234ZM39.5111 46.0363C39.5359 46.1582 39.5473 46.2846 39.5428 46.4141L39.4346 49.5109C39.4035 50.4025 38.6485 51.1066 37.7569 51.0754C36.8652 51.0443 36.1612 50.2893 36.1923 49.3977L36.3005 46.3008C36.3051 46.1676 36.3263 46.0386 36.3613 45.9155C35.4862 45.3462 34.9225 44.3456 34.9616 43.2263C35.0209 41.5274 36.4463 40.1983 38.1451 40.2576C39.8439 40.3169 41.1731 41.7422 41.1137 43.4411C41.0743 44.5681 40.4338 45.5321 39.5111 46.0363Z" fill="#173F98"/>
<path d="M42.5318 18.8337C41.3898 18.3725 40.2135 18.1414 39.0145 18.1014C37.8157 18.0577 36.4633 18.2004 35.2919 18.5808C29.8342 20.3532 27.7078 25.1229 27.7538 31.5369L32.2276 31.6931C32.1305 27.2709 33.3746 24.3368 36.206 23.1639C37.8463 22.4844 39.7112 22.5495 41.3001 23.3418C44.0428 24.7094 45.0792 27.7231 44.6738 32.1277L49.1476 32.2839C49.6411 25.8888 47.8525 20.9824 42.5318 18.8337Z" fill="#173F98"/>
</svg>
