<svg width="46" height="40" viewBox="0 0 46 40" fill="none" xmlns="http://www.w3.org/2000/svg">
<g clip-path="url(#clip0_1713_37890)">
<path d="M0.0028291 10.3286C-0.0250277 10.1618 0.103588 10.0099 0.272696 10.0099H1.68996C1.76667 10.0099 1.83987 10.0421 1.89169 10.0987L8.17065 16.9519C8.22246 17.0085 8.29566 17.0407 8.37238 17.0407H16.1034C16.2838 17.0407 16.4149 16.8691 16.3673 16.695L11.9048 0.345703C11.8573 0.171641 11.9883 5.53131e-05 12.1688 5.53131e-05H15.0466C15.1323 5.53131e-05 15.213 0.0401558 15.2647 0.108414L28.0941 17.0388L28.0976 17.0407H40.712C42.3464 17.0407 43.6712 18.3656 43.6712 20.0001C43.6712 21.6345 42.3464 22.9594 40.712 22.9594H28.0976L28.0941 22.9613L15.2647 39.8918C15.213 39.9601 15.1323 40.0001 15.0466 40.0001H12.1688C11.9883 40.0001 11.8573 39.8286 11.9048 39.6545L16.3673 23.3051C16.4149 23.131 16.2838 22.9594 16.1034 22.9594H8.37238C8.29566 22.9594 8.22246 22.9917 8.17065 23.0482L1.89169 29.9014C1.83987 29.9579 1.76667 29.9902 1.68996 29.9902H0.272696C0.103588 29.9902 -0.0250277 29.8382 0.0028291 29.6715L1.61052 20.0451C1.61551 20.0153 1.61551 19.9848 1.61052 19.955L0.0028291 10.3286Z" fill="url(#paint0_linear_1713_37890)"/>
</g>
<defs>
<linearGradient id="paint0_linear_1713_37890" x1="-0.00097606" y1="-0.32601" x2="40.1701" y2="43.5329" gradientUnits="userSpaceOnUse">
<stop offset="0.160714" stop-color="#94E9FD"/>
<stop offset="0.848214" stop-color="#6868F7"/>
</linearGradient>
<clipPath id="clip0_1713_37890">
<rect width="45.3333" height="40" fill="white"/>
</clipPath>
</defs>
</svg>
