<svg width="40" height="40" viewBox="0 0 40 40" fill="none" xmlns="http://www.w3.org/2000/svg">
<path fill-rule="evenodd" clip-rule="evenodd" d="M20 3.74976C11.025 3.74976 3.75 11.0248 3.75 19.9998C3.75 28.9748 11.025 36.2498 20 36.2498C28.975 36.2498 36.25 28.9748 36.25 19.9998C36.25 11.0248 28.975 3.74976 20 3.74976ZM27.1333 20.8831C27.3674 20.6487 27.4989 20.331 27.4989 19.9998C27.4989 19.6685 27.3674 19.3508 27.1333 19.1164L22.1333 14.1164C22.0189 13.9936 21.8809 13.8951 21.7276 13.8268C21.5742 13.7585 21.4087 13.7217 21.2409 13.7188C21.073 13.7158 20.9063 13.7467 20.7507 13.8096C20.595 13.8724 20.4536 13.966 20.3349 14.0847C20.2162 14.2034 20.1227 14.3448 20.0598 14.5004C19.9969 14.6561 19.9661 14.8228 19.969 14.9906C19.972 15.1585 20.0087 15.324 20.077 15.4773C20.1454 15.6307 20.2439 15.7687 20.3667 15.8831L23.2333 18.7498H13.75C13.4185 18.7498 13.1005 18.8815 12.8661 19.1159C12.6317 19.3503 12.5 19.6682 12.5 19.9998C12.5 20.3313 12.6317 20.6492 12.8661 20.8836C13.1005 21.1181 13.4185 21.2498 13.75 21.2498H23.2333L20.3667 24.1164C20.2439 24.2309 20.1454 24.3689 20.077 24.5222C20.0087 24.6755 19.972 24.841 19.969 25.0089C19.9661 25.1767 19.9969 25.3434 20.0598 25.4991C20.1227 25.6547 20.2162 25.7961 20.3349 25.9148C20.4536 26.0335 20.595 26.1271 20.7507 26.19C20.9063 26.2528 21.073 26.2837 21.2409 26.2807C21.4087 26.2778 21.5742 26.241 21.7276 26.1727C21.8809 26.1044 22.0189 26.0059 22.1333 25.8831L27.1333 20.8831Z" fill="#6868F7"/>
</svg>
