<svg width="41" height="41" viewBox="0 0 41 41" fill="none" xmlns="http://www.w3.org/2000/svg">
<path fill-rule="evenodd" clip-rule="evenodd" d="M20.4668 4.0354C11.4918 4.0354 4.2168 11.3104 4.2168 20.2854C4.2168 29.2604 11.4918 36.5354 20.4668 36.5354C29.4418 36.5354 36.7168 29.2604 36.7168 20.2854C36.7168 11.3104 29.4418 4.0354 20.4668 4.0354ZM27.6001 21.1687C27.8342 20.9344 27.9657 20.6167 27.9657 20.2854C27.9657 19.9541 27.8342 19.6364 27.6001 19.4021L22.6001 14.4021C22.4857 14.2793 22.3477 14.1808 22.1944 14.1124C22.041 14.0441 21.8755 14.0074 21.7077 14.0044C21.5398 14.0015 21.3731 14.0323 21.2175 14.0952C21.0618 14.1581 20.9204 14.2516 20.8017 14.3703C20.683 14.489 20.5895 14.6304 20.5266 14.7861C20.4637 14.9417 20.4328 15.1084 20.4358 15.2763C20.4388 15.4441 20.4755 15.6096 20.5438 15.763C20.6121 15.9163 20.7107 16.0543 20.8335 16.1687L23.7001 19.0354H14.2168C13.8853 19.0354 13.5673 19.1671 13.3329 19.4015C13.0985 19.6359 12.9668 19.9539 12.9668 20.2854C12.9668 20.6169 13.0985 20.9349 13.3329 21.1693C13.5673 21.4037 13.8853 21.5354 14.2168 21.5354H23.7001L20.8335 24.4021C20.7107 24.5165 20.6121 24.6545 20.5438 24.8078C20.4755 24.9612 20.4388 25.1267 20.4358 25.2945C20.4328 25.4624 20.4637 25.6291 20.5266 25.7847C20.5895 25.9404 20.683 26.0818 20.8017 26.2005C20.9204 26.3192 21.0618 26.4127 21.2175 26.4756C21.3731 26.5385 21.5398 26.5693 21.7077 26.5664C21.8755 26.5634 22.041 26.5267 22.1944 26.4584C22.3477 26.39 22.4857 26.2915 22.6001 26.1687L27.6001 21.1687Z" fill="#151531"/>
</svg>
