<svg width="45" height="274" viewBox="0 0 45 274" fill="none" xmlns="http://www.w3.org/2000/svg">
<rect y="273" width="45" height="1" fill="#151531"/>
<rect y="269" width="45" height="3" fill="#151531"/>
<rect y="267" width="45" height="1" fill="#151531"/>
<rect y="264" width="45" height="2" fill="#151531"/>
<rect y="261" width="45" height="1" fill="#151531"/>
<rect y="257" width="45" height="2" fill="#151531"/>
<rect y="255" width="45" height="1" fill="#151531"/>
<rect y="252" width="45" height="2" fill="#151531"/>
<rect y="248" width="45" height="2" fill="#151531"/>
<rect y="246" width="45" height="1" fill="#151531"/>
<rect y="243" width="45" height="1" fill="#151531"/>
<rect y="239" width="45" height="3" fill="#151531"/>
<rect y="237" width="45" height="1" fill="#151531"/>
<rect y="234" width="45" height="1" fill="#151531"/>
<rect y="230" width="45" height="3" fill="#151531"/>
<rect y="228" width="45" height="1" fill="#151531"/>
<rect y="225" width="45" height="1" fill="#151531"/>
<rect y="222" width="45" height="1" fill="#151531"/>
<rect y="218" width="45" height="3" fill="#151531"/>
<rect y="216" width="45" height="1" fill="#151531"/>
<rect y="213" width="45" height="1" fill="#151531"/>
<rect y="210" width="45" height="2" fill="#151531"/>
<rect y="207" width="45" height="2" fill="#151531"/>
<rect y="203" width="45" height="3" fill="#151531"/>
<rect y="201" width="45" height="1" fill="#151531"/>
<rect y="198" width="45" height="1" fill="#151531"/>
<rect y="196" width="45" height="1" fill="#151531"/>
<rect y="192" width="45" height="2" fill="#151531"/>
<rect y="189" width="45" height="2" fill="#151531"/>
<rect y="186" width="45" height="2" fill="#151531"/>
<rect y="184" width="45" height="1" fill="#151531"/>
<rect y="181" width="45" height="1" fill="#151531"/>
<rect y="178" width="45" height="1" fill="#151531"/>
<rect y="175" width="45" height="1" fill="#151531"/>
<rect y="172" width="45" height="1" fill="#151531"/>
<rect y="169" width="45" height="1" fill="#151531"/>
<rect y="166" width="45" height="1" fill="#151531"/>
<rect y="162" width="45" height="2" fill="#151531"/>
<rect y="160" width="45" height="1" fill="#151531"/>
<rect y="156" width="45" height="3" fill="#151531"/>
<rect y="154" width="45" height="1" fill="#151531"/>
<rect y="151" width="45" height="1" fill="#151531"/>
<rect y="147" width="45" height="3" fill="#151531"/>
<rect y="145" width="45" height="1" fill="#151531"/>
<rect y="142" width="45" height="1" fill="#151531"/>
<rect y="139" width="45" height="2" fill="#151531"/>
<rect y="136" width="45" height="2" fill="#151531"/>
<rect y="133" width="45" height="2" fill="#151531"/>
<rect y="130" width="45" height="2" fill="#151531"/>
<rect y="127" width="45" height="2" fill="#151531"/>
<rect y="124" width="45" height="2" fill="#151531"/>
<rect y="121" width="45" height="2" fill="#151531"/>
<rect y="119" width="45" height="1" fill="#151531"/>
<rect y="115" width="45" height="3" fill="#151531"/>
<rect y="113" width="45" height="1" fill="#151531"/>
<rect y="110" width="45" height="1" fill="#151531"/>
<rect y="106" width="45" height="2" fill="#151531"/>
<rect y="103" width="45" height="2" fill="#151531"/>
<rect y="100" width="45" height="2" fill="#151531"/>
<rect y="98" width="45" height="1" fill="#151531"/>
<rect y="95" width="45" height="2" fill="#151531"/>
<rect y="91" width="45" height="3" fill="#151531"/>
<rect y="88" width="45" height="2" fill="#151531"/>
<rect y="86" width="45" height="1" fill="#151531"/>
<rect y="83" width="45" height="1" fill="#151531"/>
<rect y="80" width="45" height="2" fill="#151531"/>
<rect y="77" width="45" height="2" fill="#151531"/>
<rect y="74" width="45" height="2" fill="#151531"/>
<rect y="72" width="45" height="1" fill="#151531"/>
<rect y="68" width="45" height="2" fill="#151531"/>
<rect y="65" width="45" height="2" fill="#151531"/>
<rect y="62" width="45" height="2" fill="#151531"/>
<rect y="59" width="45" height="2" fill="#151531"/>
<rect y="56" width="45" height="2" fill="#151531"/>
<rect y="53" width="45" height="2" fill="#151531"/>
<rect y="50" width="45" height="2" fill="#151531"/>
<rect y="48" width="45" height="1" fill="#151531"/>
<rect y="45" width="45" height="1" fill="#151531"/>
<rect y="40" width="45" height="3" fill="#151531"/>
<rect y="36" width="45" height="2" fill="#151531"/>
<rect y="33" width="45" height="1" fill="#151531"/>
<rect y="30" width="45" height="1" fill="#151531"/>
<rect y="27" width="45" height="2" fill="#151531"/>
<rect y="24" width="45" height="2" fill="#151531"/>
<rect y="21" width="45" height="2" fill="#151531"/>
<rect y="19" width="45" height="1" fill="#151531"/>
<rect y="15" width="45" height="2" fill="#151531"/>
<rect y="13" width="45" height="1" fill="#151531"/>
<rect y="10" width="45" height="1" fill="#151531"/>
<rect y="6.00004" width="45" height="2" fill="#151531"/>
<rect y="3.00004" width="45" height="2" fill="#151531"/>
<rect y="3.8147e-05" width="45" height="2" fill="#151531"/>
</svg>
