<svg width="58" height="58" viewBox="0 0 58 58" fill="none" xmlns="http://www.w3.org/2000/svg">
<g clip-path="url(#clip0_891_56628)">
<path d="M57.96 1.99429L1.99414 0.039917L0.0397689 56.0058L56.0057 57.9602L57.96 1.99429Z" fill="#FF6601"/>
<path d="M26.9866 32.5951L18.0088 14.2644L22.3989 14.4177L27.6519 26.0034C27.7318 26.2092 27.8259 26.4229 27.9342 26.6442C28.0425 26.8656 28.1361 27.0937 28.2149 27.3286C28.2699 27.4176 28.3105 27.4988 28.337 27.5722C28.3634 27.6457 28.3901 27.7119 28.4171 27.7709C28.5519 28.0657 28.6724 28.3528 28.7787 28.6321C28.885 28.9115 28.9776 29.1686 29.0564 29.4034C29.3054 28.9189 29.5774 28.3989 29.8725 27.8434C30.1675 27.288 30.4705 26.7111 30.7816 26.1126L36.9169 14.9247L41.0027 15.0674L30.6736 32.9415L30.2684 44.5471L26.5737 44.4181L26.9866 32.5951Z" fill="white"/>
</g>
<defs>
<clipPath id="clip0_891_56628">
<rect x="1.99414" y="0.039917" width="56" height="56" rx="8" transform="rotate(2 1.99414 0.039917)" fill="white"/>
</clipPath>
</defs>
</svg>
