<svg width="29" height="28" viewBox="0 0 29 28" fill="none" xmlns="http://www.w3.org/2000/svg">
<path d="M14.1005 0L14.5558 1.40116L16.029 1.4012L14.8372 2.26722L15.2924 3.6684L14.1005 2.80247L12.9085 3.66838L13.3637 2.2672L12.1719 1.40118L13.6451 1.40113L14.1005 0Z" fill="#9F9F9F"/>
<path d="M14.1005 24.332L14.5558 25.7332L16.029 25.7332L14.8372 26.5992L15.2924 28.0005L14.1005 27.1345L12.9085 28.0005L13.3637 26.5992L12.1719 25.7332L13.6451 25.7332L14.1005 24.332Z" fill="#9F9F9F"/>
<path d="M26.2606 12.1719L26.7159 13.573L28.1892 13.5731L26.9973 14.4391L27.4525 15.8403L26.2606 14.9744L25.0687 15.8403L25.5239 14.4391L24.332 13.5731L25.8053 13.573L26.2606 12.1719Z" fill="#9F9F9F"/>
<path d="M1.92858 12.1719L2.3839 13.573L3.85716 13.5731L2.6653 14.4391L3.12051 15.8403L1.92858 14.9744L0.736651 15.8403L1.19186 14.4391L0 13.5731L1.47326 13.573L1.92858 12.1719Z" fill="#9F9F9F"/>
<path d="M24.6395 6.07812L25.0948 7.47928L26.5681 7.47933L25.3762 8.34535L25.8314 9.74652L24.6395 8.88062L23.4476 9.74652L23.9028 8.34535L22.7109 7.47933L24.1842 7.47928L24.6395 6.07812Z" fill="#9F9F9F"/>
<path d="M20.1747 1.61719L20.63 3.01834L22.1033 3.01839L20.9114 3.88441L21.3666 5.28559L20.1747 4.41968L18.9827 5.28559L19.438 3.88441L18.2461 3.01839L19.7193 3.01834L20.1747 1.61719Z" fill="#9F9F9F"/>
<path d="M8.0067 22.7109L8.46203 24.1121L9.93528 24.1121L8.74342 24.9782L9.19864 26.3794L8.0067 25.5134L6.81478 26.3794L7.26999 24.9782L6.07812 24.1121L7.55138 24.1121L8.0067 22.7109Z" fill="#9F9F9F"/>
<path d="M3.54577 18.2461L4.00109 19.6473L5.47435 19.6473L4.28249 20.5133L4.7377 21.9145L3.54577 21.0486L2.35384 21.9145L2.80905 20.5133L1.61719 19.6473L3.09044 19.6473L3.54577 18.2461Z" fill="#9F9F9F"/>
<path d="M3.54577 6.07812L4.00109 7.47928L5.47435 7.47933L4.28249 8.34535L4.7377 9.74652L3.54577 8.88062L2.35384 9.74652L2.80905 8.34535L1.61719 7.47933L3.09044 7.47928L3.54577 6.07812Z" fill="#9F9F9F"/>
<path d="M24.6395 18.2461L25.0948 19.6473L26.5681 19.6473L25.3762 20.5133L25.8314 21.9145L24.6395 21.0486L23.4476 21.9145L23.9028 20.5133L22.7109 19.6473L24.1842 19.6473L24.6395 18.2461Z" fill="#9F9F9F"/>
<path d="M8.0067 1.61719L8.46203 3.01834L9.93528 3.01839L8.74342 3.88441L9.19864 5.28559L8.0067 4.41968L6.81478 5.28559L7.26999 3.88441L6.07812 3.01839L7.55138 3.01834L8.0067 1.61719Z" fill="#9F9F9F"/>
<path d="M20.1747 22.7109L20.63 24.1121L22.1033 24.1121L20.9114 24.9782L21.3666 26.3794L20.1747 25.5134L18.9827 26.3794L19.438 24.9782L18.2461 24.1121L19.7193 24.1121L20.1747 22.7109Z" fill="#9F9F9F"/>
<path d="M18.6429 12.2188H9.54168C8.76359 12.2188 8.13281 12.8495 8.13281 13.6276V20.3451C8.13281 21.1232 8.76357 21.754 9.54168 21.754H18.6429C19.421 21.754 20.0518 21.1232 20.0518 20.3451V13.6276C20.0518 12.8495 19.421 12.2188 18.6429 12.2188ZM14.7017 17.1089C14.713 17.1559 14.7191 17.2049 14.7191 17.2553V18.4604C14.7191 18.8073 14.4353 19.0912 14.0883 19.0912C13.7413 19.0912 13.4574 18.8073 13.4574 18.4604V17.2553C13.4574 17.2034 13.4639 17.153 13.4758 17.1047C13.128 16.8953 12.8953 16.5141 12.8953 16.0785C12.8953 15.4174 13.4313 14.8814 14.0923 14.8814C14.7534 14.8814 15.2894 15.4174 15.2894 16.0785C15.2893 16.517 15.0535 16.9004 14.7017 17.1089Z" fill="#404040"/>
<path d="M15.5065 6.49468C15.0564 6.33094 14.596 6.25709 14.1295 6.25782C13.663 6.25709 13.1393 6.33092 12.6892 6.49468C10.592 7.25761 9.83026 9.14028 9.93521 11.6325H11.6761C11.5784 9.91508 12.0221 8.75783 13.1066 8.26354C13.7349 7.97717 14.4606 7.97717 15.0889 8.26354C16.1735 8.75786 16.6172 9.91511 16.5194 11.6325H18.2604C18.3654 9.14026 17.6036 7.25759 15.5065 6.49468Z" fill="#404040"/>
</svg>
