<?xml version="1.0" encoding="UTF-8"?>
<svg width="91px" height="48px" viewBox="0 0 91 48" version="1.1" xmlns="http://www.w3.org/2000/svg" xmlns:xlink="http://www.w3.org/1999/xlink">
    <title>Logo - static clean</title>
    <g id="Logo-test" stroke="none" stroke-width="1" fill="none" fill-rule="evenodd">
        <g id="June-—-logo" transform="translate(-62.000000, -64.000000)">
            <g id="Logo---static-clean" transform="translate(65.000000, 67.000000)">
                <path d="M49.2313541,0.116995785 C49.7159367,-0.0642301738 50.2549735,-0.0289233299 50.7117768,0.213963296 L50.7117768,0.213963296 L67.5332835,9.15811706 C68.4139203,9.62635999 68.7482317,10.7198431 68.2799888,11.60048 L68.2799888,11.60048 L67.4239888,13.208574 L81.2576125,11.9986433 C82.2015617,11.9160585 83.0393209,12.5752893 83.1952698,13.493333 L83.2141434,13.6403677 L84.8751674,32.6259588 C84.9199219,33.137505 84.7448011,33.6439166 84.3936029,34.0185395 L84.3936029,34.0185395 L83.4593162,35.0151427 C83.1560333,35.3386545 82.7443272,35.5392778 82.302649,35.5787839 L82.302649,35.5787839 L63.2431156,37.2835713 L63.2431156,37.2835713 L63.22185,37.2853468 C62.2274094,37.3624626 61.3587412,36.6188238 61.2816254,35.6243832 L61.2816254,35.6243832 L60.5459888,26.144574 L59.3326934,28.4278952 C59.1184149,28.8308944 58.7606512,29.135876 58.3336444,29.2849936 L58.1704161,29.3334935 L56.8441954,29.6604349 C56.4135481,29.7665986 55.9588919,29.7105679 55.566905,29.503025 L55.566905,29.503025 L47.5806953,25.2746147 L47.4089888,25.183574 L40.0510033,40.5656133 C39.8868705,40.9087109 39.6192812,41.1899404 39.2879153,41.3710237 L39.1421124,41.4423878 L37.8765073,41.9928192 C37.4020528,42.1991668 36.8618835,42.192119 36.3929742,41.973463 L36.3929742,41.973463 L19.126523,33.9219846 C18.2225478,33.5004541 17.8314492,32.4259194 18.2529797,31.5219442 L18.2529797,31.5219442 L20.9739888,25.684574 L7.11738794,29.4270042 C6.15445119,29.6870272 5.16304644,29.117203 4.90302347,28.1542662 L4.8975822,28.1336321 L4.8975822,28.1336321 L0.167998403,9.7587084 C0.0596488551,9.33775917 0.106754541,8.89185415 0.300669517,8.50283633 L0.916368786,7.26766619 C1.1471843,6.80462125 1.56550821,6.46280601 2.06526298,6.32889712 L20.4675225,1.39802655 C21.4309623,1.13987363 22.4212588,1.71162161 22.6794117,2.67506139 L25.9729888,14.965574 L26.3072863,14.2494279 C26.5001882,13.8357486 26.8415149,13.512447 27.2601505,13.3411786 L27.4206237,13.2841999 L28.7280414,12.8882596 C29.152448,12.7597317 29.6093075,12.7918397 30.0115651,12.9784656 L30.0115651,12.9784656 L38.5409888,16.935574 L46.9851248,1.42842803 C47.1669812,1.09440516 47.44891,0.827577296 47.7892841,0.66409161 L47.9386156,0.600458774 Z" id="Border-2" stroke="#858ADF" stroke-width="4.536"></path>
                <path d="M49.2313541,0.116995785 C49.7159367,-0.0642301738 50.2549735,-0.0289233299 50.7117768,0.213963296 L50.7117768,0.213963296 L67.5332835,9.15811706 C68.4139203,9.62635999 68.7482317,10.7198431 68.2799888,11.60048 L68.2799888,11.60048 L67.4239888,13.208574 L81.2576125,11.9986433 C82.2015617,11.9160585 83.0393209,12.5752893 83.1952698,13.493333 L83.2141434,13.6403677 L84.8751674,32.6259588 C84.9199219,33.137505 84.7448011,33.6439166 84.3936029,34.0185395 L84.3936029,34.0185395 L83.4593162,35.0151427 C83.1560333,35.3386545 82.7443272,35.5392778 82.302649,35.5787839 L82.302649,35.5787839 L63.2431156,37.2835713 L63.2431156,37.2835713 L63.22185,37.2853468 C62.2274094,37.3624626 61.3587412,36.6188238 61.2816254,35.6243832 L61.2816254,35.6243832 L60.5459888,26.144574 L59.3326934,28.4278952 C59.1184149,28.8308944 58.7606512,29.135876 58.3336444,29.2849936 L58.1704161,29.3334935 L56.8441954,29.6604349 C56.4135481,29.7665986 55.9588919,29.7105679 55.566905,29.503025 L55.566905,29.503025 L47.5806953,25.2746147 L47.4089888,25.183574 L40.0510033,40.5656133 C39.8868705,40.9087109 39.6192812,41.1899404 39.2879153,41.3710237 L39.1421124,41.4423878 L37.8765073,41.9928192 C37.4020528,42.1991668 36.8618835,42.192119 36.3929742,41.973463 L36.3929742,41.973463 L19.126523,33.9219846 C18.2225478,33.5004541 17.8314492,32.4259194 18.2529797,31.5219442 L18.2529797,31.5219442 L20.9739888,25.684574 L7.11738794,29.4270042 C6.15445119,29.6870272 5.16304644,29.117203 4.90302347,28.1542662 L4.8975822,28.1336321 L4.8975822,28.1336321 L0.167998403,9.7587084 C0.0596488551,9.33775917 0.106754541,8.89185415 0.300669517,8.50283633 L0.916368786,7.26766619 C1.1471843,6.80462125 1.56550821,6.46280601 2.06526298,6.32889712 L20.4675225,1.39802655 C21.4309623,1.13987363 22.4212588,1.71162161 22.6794117,2.67506139 L25.9729888,14.965574 L26.3072863,14.2494279 C26.5001882,13.8357486 26.8415149,13.512447 27.2601505,13.3411786 L27.4206237,13.2841999 L28.7280414,12.8882596 C29.152448,12.7597317 29.6093075,12.7918397 30.0115651,12.9784656 L30.0115651,12.9784656 L38.5409888,16.935574 L46.9851248,1.42842803 C47.1669812,1.09440516 47.44891,0.827577296 47.7892841,0.66409161 L47.9386156,0.600458774 Z" id="Border-1" stroke="#9DA2F6" stroke-width="2.016"></path>
                <path d="M50.5566508,0.140701509 L50.7117768,0.213963296 L67.5332835,9.15811706 C68.367571,9.60171563 68.7115277,10.6064716 68.3472898,11.4597855 L68.2799888,11.60048 L67.4239888,13.208574 L81.2576125,11.9986433 C82.2015617,11.9160585 83.0393209,12.5752893 83.1952698,13.493333 L83.2141434,13.6403677 L84.8751674,32.6259588 C84.9149491,33.0806666 84.7810023,33.5313173 84.5040875,33.8889579 L84.3936029,34.0185395 L83.4593162,35.0151427 C83.1939436,35.2982155 82.8455596,35.4872019 82.4667202,35.5564914 L82.302649,35.5787839 L63.2431156,37.2835713 L63.22185,37.2853468 C62.2771314,37.3586068 61.4459224,36.6911358 61.2990462,35.771597 L61.2816254,35.6243832 L60.5459888,26.144574 L59.3326934,28.4278952 C59.1184149,28.8308944 58.7606512,29.135876 58.3336444,29.2849936 L58.1704161,29.3334935 L56.8441954,29.6604349 C56.467379,29.7533281 56.0721808,29.7220413 55.7166684,29.5737306 L55.566905,29.503025 L47.5806953,25.2746147 L47.4089888,25.183574 L40.0510033,40.5656133 C39.8868705,40.9087109 39.6192812,41.1899404 39.2879153,41.3710237 L39.1421124,41.4423878 L37.8765073,41.9928192 C37.45477,42.1762393 36.9811098,42.1910507 36.5517286,42.0385086 L36.3929742,41.973463 L19.126523,33.9219846 C18.2701255,33.5226399 17.8740382,32.5372194 18.1931317,31.6659744 L18.2529797,31.5219442 L20.9739888,25.684574 L7.11738794,29.4270042 C6.15445119,29.6870272 5.16304644,29.117203 4.90302347,28.1542662 L4.8975822,28.1336321 L0.167998403,9.7587084 C0.0596488551,9.33775917 0.106754541,8.89185415 0.300669517,8.50283633 L0.916368786,7.26766619 C1.1471843,6.80462125 1.56550821,6.46280601 2.06526298,6.32889712 L20.4675225,1.39802655 C21.4309623,1.13987363 22.4212588,1.71162161 22.6794117,2.67506139 L25.9729888,14.965574 L26.3072863,14.2494279 C26.5001882,13.8357486 26.8415149,13.512447 27.2601505,13.3411786 L27.4206237,13.2841999 L28.7280414,12.8882596 C29.0993971,12.7757977 29.4955997,12.7863226 29.8583291,12.9157358 L30.0115651,12.9784656 L38.5409888,16.935574 L46.9851248,1.42842803 C47.1669812,1.09440516 47.44891,0.827577296 47.7892841,0.66409161 L47.9386156,0.600458774 L49.2313541,0.116995785 C49.6620942,-0.0440939562 50.1358598,-0.0340960507 50.5566508,0.140701509 Z M28.6947274,17.0628396 C28.1918649,16.8283509 27.5941238,17.0459109 27.3596352,17.5487734 L27.3596352,17.5487734 L21.0345685,31.1129227 C20.8000798,31.6157852 21.0176398,32.2135263 21.5205023,32.448015 L21.5205023,32.448015 L35.0846516,38.7730816 C35.5875141,39.0075703 36.1852552,38.7900103 36.4197439,38.2871478 L36.4197439,38.2871478 L42.7448105,24.7229985 C42.9792992,24.220136 42.7617392,23.6223949 42.2588767,23.3879063 L42.2588767,23.3879063 Z M80.0386559,14.46865 L79.9213504,14.4721281 L66.1101161,15.6804546 L64.2938115,19.0954769 L65.4030685,31.7743427 C65.4514267,32.3270787 65.9387097,32.7359578 66.4914457,32.6875996 L66.4914457,32.6875996 L81.4008769,31.3831934 C81.9536129,31.3348353 82.362492,30.8475522 82.3141338,30.2948162 L82.3141338,30.2948162 L81.0097276,15.385385 C80.9613695,14.832649 80.4740864,14.42377 79.9213504,14.4721281 Z M50.4921481,3.89384213 L43.465857,17.1083738 C43.205372,17.5982749 43.3913504,18.2065831 43.8812516,18.4670682 L57.0957832,25.4933593 C57.5856844,25.7538444 58.1939926,25.5678659 58.4544776,25.0779647 L65.4807687,11.8634331 C65.7412538,11.3735319 65.5552753,10.7652237 65.0653742,10.5047387 L51.8508425,3.47844757 C51.3609414,3.21796252 50.7526332,3.403941 50.4921481,3.89384213 Z M20.8115051,4.77636081 C20.6679,4.24041943 20.1170188,3.92236799 19.5810774,4.06597305 L19.5810774,4.06597305 L5.12466172,7.93955796 C4.58872033,8.08316302 4.2706689,8.63404426 4.41427396,9.16998565 L4.41427396,9.16998565 L8.28785887,23.6264013 C8.43146393,24.1623427 8.98234517,24.4803941 9.51828656,24.3367891 L9.51828656,24.3367891 L23.3257423,20.6370925 L24.4272244,18.2704091 Z" id="Combined-Shape" fill="#A7ACFC"></path>
                <polygon id="E" fill="#8588E5" points="67.8078071 18.0393334 77.3298694 17.2061577 77.5614935 19.8620251 71.6234359 20.3808017 71.7954324 22.339134 77.0074494 21.877677 77.2299526 24.3938255 72.0155381 24.8488469 72.2017743 26.9814086 78.3689785 26.4415251 78.6014779 29.0980195 68.8470909 29.9509732"></polygon>
                <path d="M13.8049612,21.0649549 C15.5239432,21.0649549 16.8283116,20.6321391 17.7180664,19.7665074 C18.6078212,18.9008757 19.0526986,17.6024282 19.0526986,15.8711648 L19.0526986,15.8711648 L19.0526986,8.0623196 L10.5001577,8.0623196 L10.5001577,11.2948183 L14.8218238,11.2948183 L14.8218238,16.1254063 C14.8218238,16.645996 14.7037951,17.039465 14.4677377,17.3058132 C14.2316803,17.5721614 13.8896997,17.7053355 13.441796,17.7053355 C13.0907363,17.7053355 12.7517821,17.6024282 12.4249334,17.3966137 C12.0980847,17.1907992 11.7651832,16.876024 11.426229,16.4522882 L11.426229,16.4522882 L9.12012989,19.176304 C9.6406667,19.7937476 10.3034432,20.2628836 11.1084595,20.5837122 C11.9134757,20.9045407 12.8123096,21.0649549 13.8049612,21.0649549 Z" id="J" fill="#8588E5" transform="translate(14.086414, 14.563637) rotate(-15.000000) translate(-14.086414, -14.563637) "></path>
                <path d="M31.9328821,34.3030319 C33.7802887,34.3030319 35.2203479,33.8056468 36.2530596,32.8108765 C37.2857714,31.8161063 37.8021273,30.4211412 37.8021273,28.6259812 L37.8021273,28.6259812 L37.8021273,22.0227651 L33.8089752,22.0227651 L33.8089752,28.5059227 C33.8089752,29.3863515 33.6511997,30.0266634 33.3356489,30.4268583 C33.0200981,30.8270532 32.5639838,31.0271507 31.9673059,31.0271507 C31.370628,31.0271507 30.9145136,30.8270532 30.5989628,30.4268583 C30.283412,30.0266634 30.1256366,29.3863515 30.1256366,28.5059227 L30.1256366,28.5059227 L30.1256366,22.0227651 L26.063637,22.0227651 L26.063637,28.6259812 C26.063637,30.4211412 26.5799929,31.8161063 27.6127046,32.8108765 C28.6454164,33.8056468 30.0854756,34.3030319 31.9328821,34.3030319 Z" id="U" fill="#8588E5" transform="translate(31.932882, 28.162899) rotate(25.000000) translate(-31.932882, -28.162899) "></path>
                <polygon id="N" fill="#8588E5" points="46.7288471 16.8533315 49.7430682 18.4585055 52.5575373 13.1639677 54.2353314 20.8462629 56.8386923 22.2316281 62.2157813 12.1187511 59.1988924 10.5156913 56.3844735 15.8102321 54.7062304 8.12504295 52.1022146 6.74143766"></polygon>
            </g>
        </g>
    </g>
</svg>