<svg width="80" height="80" viewBox="0 0 80 80" fill="none" xmlns="http://www.w3.org/2000/svg">
<path fill-rule="evenodd" clip-rule="evenodd" d="M7.44304 19.4156C7.91122 18.4764 8.75973 17.783 9.77342 17.5114L56.6612 4.94787C58.6151 4.42434 60.6235 5.58355 61.1475 7.53727L74.4356 57.0786C74.9592 59.0309 73.8026 61.0385 71.8509 61.5646L21.8805 75.0356C19.9113 75.5664 17.8877 74.3868 17.3794 72.4117L5.34076 25.6405C5.12099 24.7867 5.21654 23.8822 5.60987 23.0932L7.44304 19.4156Z" stroke="#858ADF" stroke-width="9.191"/>
<path fill-rule="evenodd" clip-rule="evenodd" d="M7.44304 19.4156C7.91122 18.4764 8.75973 17.783 9.77342 17.5114L56.6612 4.94787C58.6151 4.42434 60.6235 5.58355 61.1475 7.53727L74.4356 57.0786C74.9592 59.0309 73.8026 61.0385 71.8509 61.5646L21.8805 75.0356C19.9113 75.5664 17.8877 74.3868 17.3794 72.4117L5.34076 25.6405C5.12099 24.7867 5.21654 23.8822 5.60987 23.0932L7.44304 19.4156Z" stroke="#9DA2F6" stroke-width="4.08489"/>
<path fill-rule="evenodd" clip-rule="evenodd" d="M9.78023 17.5114C8.76654 17.783 7.91802 18.4764 7.44984 19.4156L5.61668 23.0932C5.22335 23.8822 5.1278 24.7867 5.34757 25.6405L17.3862 72.4117C17.8945 74.3868 19.9181 75.5664 21.8873 75.0356L71.8577 61.5646C73.8094 61.0385 74.966 59.0309 74.4424 57.0786L61.1543 7.53727C60.6303 5.58355 58.6219 4.42434 56.668 4.94787L9.78023 17.5114ZM17.294 21.5366C16.2069 21.8279 15.5618 22.9453 15.8531 24.0324L25.7168 60.8443C26.0081 61.9314 27.1255 62.5765 28.2125 62.2852L65.0244 52.4215C66.1115 52.1302 66.7566 51.0128 66.4654 49.9257L56.6016 13.1138C56.3104 12.0268 55.193 11.3816 54.1059 11.6729L17.294 21.5366Z" fill="#A7ACFC"/>
<path fill-rule="evenodd" clip-rule="evenodd" d="M43.5132 53.6662C47.6395 52.5605 50.4921 50.6826 52.0711 48.0325C53.6501 45.3823 53.8829 41.9794 52.7693 37.8236L47.7468 19.0792L27.2172 24.5801L29.2963 32.3394L39.6701 29.5598L42.777 41.1552C43.1119 42.4048 43.0816 43.4252 42.6863 44.2164C42.291 45.0076 41.5557 45.5472 40.4806 45.8353C39.6379 46.0611 38.7581 46.0321 37.8411 45.7482C36.9242 45.4644 35.9226 44.923 34.8365 44.1238L31.0529 52.1458C32.6996 53.2932 34.5922 53.993 36.731 54.2453C38.8697 54.4977 41.1304 54.3046 43.5132 53.6662Z" fill="#8588E5"/>
</svg>
