<svg width="100" height="32" viewBox="0 0 100 32" fill="none" xmlns="http://www.w3.org/2000/svg">
<path d="M46.996 17.7352V6.77031C46.996 6.02156 47.4241 5.59375 48.1728 5.59375H50.0716C50.8203 5.59375 51.2482 6.02156 51.2482 6.77031V17.5747C51.2482 21.8536 48.8147 24.6348 44.295 24.6348C41.6741 24.6348 39.4992 23.5986 38.1172 21.7466C37.6599 21.1336 37.8766 20.5164 38.5453 20.142L39.9091 19.3931C40.551 19.0455 41.0591 19.2327 41.5672 19.8478C42.236 20.6502 43.0916 21.078 44.1613 21.078C46.0066 21.078 46.996 19.7675 46.996 17.7352ZM54.2985 18.2967V11.6377C54.2985 10.8889 54.7263 10.4609 55.475 10.4609H57.1866C57.9353 10.4609 58.3635 10.8889 58.3635 11.6377V18.5373C58.3635 20.4897 59.4866 21.4523 61.011 21.4523C62.5353 21.4523 63.6585 20.4897 63.6585 18.5373V11.6377C63.6585 10.8889 64.0863 10.4609 64.835 10.4609H66.5466C67.2957 10.4609 67.7235 10.8889 67.7235 11.6377V18.2967C67.7235 22.4953 65.1294 24.6348 61.011 24.6348C56.8925 24.6348 54.2985 22.4953 54.2985 18.2967ZM74.5707 14.8469V23.1372C74.5707 23.8859 74.1428 24.3139 73.3938 24.3139H71.6822C70.9335 24.3139 70.5057 23.8859 70.5057 23.1372V11.6377C70.5057 10.8889 70.9335 10.4609 71.6822 10.4609H73.3938C74.1428 10.4609 74.5707 10.8889 74.5707 11.6377V12.012C75.56 10.9958 77.2182 10.14 79.1169 10.14C82.0053 10.14 83.9575 11.9586 83.9575 15.4352V23.1372C83.9575 23.8859 83.5297 24.3139 82.7807 24.3139H81.0691C80.3203 24.3139 79.8925 23.8859 79.8925 23.1372V15.8631C79.8925 14.2317 79.1703 13.3225 77.6997 13.3225C76.4425 13.3225 75.2391 14.0445 74.5707 14.8469ZM99.8975 17.5478C99.8975 18.2967 99.4428 18.6978 98.6941 18.6978H90.0828C90.3769 20.4361 91.6338 21.4523 93.5594 21.4523C94.4685 21.4523 95.1907 21.1583 95.8057 20.6502C96.3675 20.1687 96.8757 20.035 97.4638 20.4628L98.3463 21.078C98.9882 21.5327 99.1271 22.1798 98.5335 22.7361C97.2077 23.9785 95.4582 24.6348 93.3988 24.6348C88.8525 24.6348 86.0444 21.6128 86.0444 17.3875C86.0444 13.162 88.826 10.14 92.9978 10.14C97.1163 10.14 99.8975 13.1353 99.8975 17.4409V17.5478ZM90.056 15.9433H95.886C95.7257 14.312 94.5757 13.3225 92.9978 13.3225C91.3663 13.3225 90.2966 14.2584 90.056 15.9433Z" fill="#6868F7"/>
<path d="M22.1268 13.5764C22.6217 16.3831 21.0659 18.3484 18.1647 18.86C15.9482 19.2508 14.0846 18.5879 13.2081 17.0358C13.1026 16.8491 13.082 16.6262 13.1512 16.4231C13.2203 16.2201 13.3728 16.0555 13.5705 15.9722L14.8679 15.4256C15.1766 15.2955 15.5333 15.3854 15.7441 15.6457C16.1317 16.1245 16.7614 16.392 17.5898 16.246C18.7724 16.0374 19.4146 15.16 19.2005 13.9459L18.4164 9.49922L13.8745 10.3001C13.4655 10.3722 13.0755 10.0991 13.0034 9.69014L12.8169 8.63268C12.7448 8.2237 13.0179 7.83369 13.4269 7.76158L20.1295 6.57972C20.5385 6.50761 20.9285 6.78069 21.0006 7.18968L22.1268 13.5764ZM27.81 4.6341C27.2723 1.58461 24.3643 -0.451589 21.3148 0.0861164L9.2458 2.21421C7.78139 2.47242 6.47954 3.30181 5.62661 4.51988L1.014 11.1074C0.161085 12.3255 -0.173011 13.8325 0.0852015 15.2969L2.2133 27.3659C2.751 30.4154 5.65899 32.4516 8.70848 31.9139L20.7775 29.7858C22.2419 29.5276 23.5438 28.6982 24.3967 27.4801L29.0093 20.8926C29.8622 19.6745 30.1963 18.1675 29.9381 16.7031L27.81 4.6341ZM27.7433 17.171C28.0659 19.0007 26.8442 20.7455 25.0145 21.0681L12.867 23.2101C11.0373 23.5327 9.29253 22.311 8.9699 20.4813L6.82796 8.3338C6.50535 6.5041 7.72708 4.7593 9.55675 4.43669L21.7043 2.29475C23.5339 1.97214 25.2787 3.19385 25.6014 5.02354L27.7433 17.171Z" fill="#6868F7"/>
</svg>
