<svg width="100" height="32" viewBox="0 0 100 32" fill="none" xmlns="http://www.w3.org/2000/svg">
<path d="M46.9941 17.7342V6.76937C46.9941 6.02062 47.4222 5.5928 48.171 5.5928H50.0697C50.8185 5.5928 51.2463 6.02062 51.2463 6.76937V17.5737C51.2463 21.8526 48.8128 24.6339 44.2931 24.6339C41.6722 24.6339 39.4973 23.5977 38.1153 21.7456C37.658 21.1327 37.8747 20.5155 38.5434 20.1411L39.9072 19.3922C40.5491 19.0445 41.0572 19.2317 41.5653 19.8469C42.2341 20.6492 43.0897 21.077 44.1594 21.077C46.0047 21.077 46.9941 19.7666 46.9941 17.7342ZM54.2966 18.2958V11.6367C54.2966 10.888 54.7244 10.46 55.4731 10.46H57.1847C57.9335 10.46 58.3616 10.888 58.3616 11.6367V18.5364C58.3616 20.4887 59.4847 21.4514 61.0091 21.4514C62.5335 21.4514 63.6566 20.4887 63.6566 18.5364V11.6367C63.6566 10.888 64.0844 10.46 64.8331 10.46H66.5447C67.2938 10.46 67.7216 10.888 67.7216 11.6367V18.2958C67.7216 22.4944 65.1275 24.6339 61.0091 24.6339C56.8906 24.6339 54.2966 22.4944 54.2966 18.2958ZM74.5688 14.8459V23.1362C74.5688 23.885 74.141 24.313 73.3919 24.313H71.6803C70.9316 24.313 70.5038 23.885 70.5038 23.1362V11.6367C70.5038 10.888 70.9316 10.46 71.6803 10.46H73.3919C74.141 10.46 74.5688 10.888 74.5688 11.6367V12.0111C75.5581 10.9948 77.2163 10.1391 79.115 10.1391C82.0035 10.1391 83.9556 11.9576 83.9556 15.4342V23.1362C83.9556 23.885 83.5278 24.313 82.7788 24.313H81.0672C80.3185 24.313 79.8906 23.885 79.8906 23.1362V15.8622C79.8906 14.2308 79.1685 13.3216 77.6978 13.3216C76.4406 13.3216 75.2372 14.0436 74.5688 14.8459ZM99.8956 17.5469C99.8956 18.2958 99.441 18.6969 98.6922 18.6969H90.081C90.375 20.4351 91.6319 21.4514 93.5575 21.4514C94.4666 21.4514 95.1888 21.1573 95.8038 20.6492C96.3656 20.1678 96.8738 20.0341 97.4619 20.4619L98.3444 21.077C98.9863 21.5317 99.1252 22.1789 98.5316 22.7351C97.2058 23.9776 95.4563 24.6339 93.3969 24.6339C88.8506 24.6339 86.0425 21.6119 86.0425 17.3866C86.0425 13.1611 88.8241 10.1391 92.996 10.1391C97.1144 10.1391 99.8956 13.1344 99.8956 17.44V17.5469ZM90.0541 15.9423H95.8841C95.7238 14.3111 94.5738 13.3216 92.996 13.3216C91.3644 13.3216 90.2947 14.2575 90.0541 15.9423Z" fill="#151531"/>
<path d="M22.1268 13.5764C22.6217 16.3831 21.0659 18.3484 18.1647 18.86C15.9482 19.2508 14.0846 18.5879 13.2081 17.0358C13.1026 16.8491 13.082 16.6262 13.1512 16.4231C13.2203 16.2201 13.3728 16.0555 13.5705 15.9722L14.8679 15.4256C15.1766 15.2955 15.5333 15.3854 15.7441 15.6457C16.1317 16.1245 16.7614 16.392 17.5898 16.246C18.7724 16.0374 19.4146 15.16 19.2005 13.9459L18.4164 9.49922L13.8745 10.3001C13.4655 10.3722 13.0755 10.0991 13.0034 9.69014L12.8169 8.63268C12.7448 8.2237 13.0179 7.83369 13.4269 7.76158L20.1295 6.57972C20.5385 6.50761 20.9285 6.78069 21.0006 7.18968L22.1268 13.5764ZM27.81 4.6341C27.2723 1.58461 24.3643 -0.451589 21.3148 0.0861164L9.2458 2.21421C7.78139 2.47242 6.47954 3.30181 5.62661 4.51988L1.014 11.1074C0.161085 12.3255 -0.173011 13.8325 0.0852015 15.2969L2.2133 27.3659C2.751 30.4154 5.65899 32.4516 8.70848 31.9139L20.7775 29.7858C22.2419 29.5276 23.5438 28.6982 24.3967 27.4801L29.0093 20.8926C29.8622 19.6745 30.1963 18.1675 29.9381 16.7031L27.81 4.6341ZM27.7433 17.171C28.0659 19.0007 26.8442 20.7455 25.0145 21.0681L12.867 23.2101C11.0373 23.5327 9.29253 22.311 8.9699 20.4813L6.82796 8.3338C6.50535 6.5041 7.72708 4.7593 9.55675 4.43669L21.7043 2.29475C23.5339 1.97214 25.2787 3.19385 25.6014 5.02354L27.7433 17.171Z" fill="#151531"/>
</svg>
