<svg width="300" height="142" viewBox="0 0 300 142" fill="none" xmlns="http://www.w3.org/2000/svg">
<g clip-path="url(#clip0_201_12024)">
<path fill-rule="evenodd" clip-rule="evenodd" d="M276.388 76.1519C277.514 74.9929 278.524 73.8338 279.495 72.5974C291.534 77.6588 300 89.211 299.961 102.965V140.906L265.825 141.138H235.611C216.932 141.138 202.136 125.683 202.136 107.061C202.136 101.034 203.689 95.0064 206.408 89.636H244.815C256.777 89.636 268 84.8064 276.388 76.1519ZM233.087 113.127C236.544 113.127 239.262 110.345 239.262 106.984C239.262 103.7 236.505 100.918 233.087 100.918C229.709 100.918 226.99 103.7 226.99 106.984C226.99 110.345 229.709 113.127 233.087 113.127ZM250.679 113.127C254.136 113.127 256.854 110.345 256.854 106.984C256.854 103.7 254.136 100.918 250.679 100.918C247.301 100.918 244.582 103.7 244.582 106.984C244.582 110.345 247.301 113.127 250.679 113.127ZM268.311 113.127C271.767 113.127 274.485 110.345 274.485 106.984C274.485 103.7 271.728 100.918 268.311 100.918C264.932 100.918 262.213 103.7 262.213 106.984C262.213 110.345 264.932 113.127 268.311 113.127Z" fill="#5E21F1"/>
<path fill-rule="evenodd" clip-rule="evenodd" d="M243.301 82.295C264.854 82.295 281.903 64.3678 281.903 42.9248C281.903 21.4817 264.854 0 243.262 0H39.8835C18.3301 0 0 16.4976 0 37.9793V81.8314L39.8835 82.295H243.301ZM38.3689 57.0269C38.3689 58.611 39.1845 60.0406 40.3107 60.8519C45.5146 64.561 51.6893 66.4155 57.7087 66.3383C67.7282 66.3383 74.7573 61.1997 74.7573 52.0042V51.8883C74.7573 43.8134 69.4757 40.452 60.0388 38.018C52 35.9702 50.0194 35.0043 50.0194 31.9521V31.8362C50.0194 29.5953 52.0777 27.818 56 27.818C59.1845 27.818 62.3689 28.9385 65.7476 30.9089C66.5631 31.3725 67.3398 31.643 68.3495 31.643C70.9903 31.643 73.1262 29.5953 73.1262 26.968C73.1262 24.9976 72 23.6067 70.8738 22.9499C66.7184 20.3226 61.7864 18.8544 56.1553 18.8544C46.6408 18.8544 39.8835 24.418 39.8835 32.8021V32.918C39.8835 42.1134 45.9417 44.6634 55.301 47.0588C63.068 49.0293 64.6602 50.3429 64.6602 52.9315V53.0861C64.6602 55.7906 62.1359 57.4519 57.9417 57.4519C53.4369 57.4519 49.5922 55.8679 46.0583 53.2792C45.3981 52.8156 44.466 52.352 43.1456 52.352C40.5049 52.352 38.3689 54.3997 38.3689 57.0269ZM77.9806 48.2565V48.1406C77.9806 38.018 85.7476 29.7112 96.6214 29.7112C101.981 29.7112 105.786 31.1794 108.777 33.6907C109.437 34.2316 110.369 35.3907 110.369 37.1293C110.369 39.6407 108.311 41.6111 105.786 41.6111C104.466 41.6111 103.456 41.0702 102.874 40.6066C101.087 39.2157 99.2233 38.3657 96.5825 38.3657C91.534 38.3657 87.9612 42.8088 87.9612 48.0247V48.1406C87.9612 53.5497 91.4951 57.9156 96.9709 57.9156C99.6116 57.9156 101.67 56.9883 103.612 55.4815C104.155 55.0951 105.126 54.5542 106.33 54.5542C108.738 54.5542 110.563 56.486 110.563 58.8428C110.563 60.1565 109.981 61.2383 109.087 62.011C106.097 64.7155 102.33 66.5701 96.466 66.5701C85.7864 66.5314 77.9806 58.3792 77.9806 48.2565ZM119.65 29.943C116.854 29.943 114.602 32.1839 114.602 34.9657V61.0837C114.602 63.8655 116.854 66.1064 119.65 66.1064C122.447 66.1064 124.699 63.8655 124.699 61.0837V51.6952C124.699 44.5861 127.534 40.6839 132.66 39.4861C134.718 39.0225 136.427 37.4384 136.427 34.8112C136.427 31.9907 134.641 29.943 131.534 29.943C128.544 29.943 126.175 33.1112 124.699 36.5498V34.9657C124.699 32.1839 122.447 29.943 119.65 29.943ZM202.447 46.7497C202.447 39.4089 197.204 29.7112 185.32 29.7112C178.214 29.7112 172.544 33.6521 169.709 39.3702C167.34 34.193 162.33 29.7112 154.252 29.7112C143.883 29.7112 136.66 38.018 136.66 48.1406V48.2565C136.66 59.0747 144.544 66.5701 155.262 66.5701C160.427 66.5701 164.505 64.9087 167.612 62.2815C168.35 61.6246 168.932 60.6201 168.932 59.3065C168.932 57.0656 167.262 55.327 165.01 55.327C163.961 55.327 163.301 55.5974 162.563 56.1383C160.505 57.6451 158.175 58.5338 155.379 58.5338C150.874 58.5338 147.689 56.1383 146.68 51.6179H167.985C169.404 60.6495 176.754 66.6087 186.33 66.6087C191.495 66.6087 195.573 64.9474 198.68 62.3201C199.417 61.6633 200 60.6587 200 59.3451C200 57.1042 198.33 55.3656 196.078 55.3656C195.029 55.3656 194.369 55.636 193.631 56.177C191.573 57.6838 189.243 58.5724 186.447 58.5724C181.942 58.5724 178.757 56.177 177.748 51.6565H197.748C200.388 51.5406 202.447 49.6474 202.447 46.7497ZM167.961 51.4633L167.97 51.5209C167.887 51.5026 167.863 51.483 167.961 51.4633ZM146.563 45.2816C147.379 40.7225 150.097 37.7475 154.252 37.7475C158.485 37.7475 161.165 40.7998 161.748 45.2816H146.563ZM177.631 45.2816C178.447 40.7225 181.165 37.7475 185.32 37.7475C189.553 37.7475 192.233 40.7998 192.816 45.2816H177.631ZM212.194 17.1544C209.398 17.1544 207.146 19.3953 207.146 22.1771V61.161C207.146 63.9428 209.398 66.1837 212.194 66.1837C214.99 66.1837 217.243 63.9428 217.243 61.2383V61.161C219.612 64.0201 222.951 66.4542 228.311 66.4542C236.738 66.4542 244.505 59.9633 244.505 48.1406V48.0247C244.505 36.2021 236.621 29.7112 228.311 29.7112C223.068 29.7112 219.689 32.1839 217.243 35.468V22.1771C217.243 19.3953 214.99 17.1544 212.194 17.1544ZM234.447 48.0247V48.1406C234.447 54.052 230.447 57.9156 225.748 57.9156C221.049 57.9156 217.126 54.0133 217.126 48.1406V48.0247C217.126 42.152 221.049 38.2498 225.748 38.2498C230.447 38.2498 234.447 42.152 234.447 48.0247Z" fill="#5E21F1"/>
</g>
<defs>
<clipPath id="clip0_201_12024">
<rect width="300" height="141.176" fill="white"/>
</clipPath>
</defs>
</svg>
