<svg width="32" height="32" viewBox="0 0 32 32" fill="none" xmlns="http://www.w3.org/2000/svg">
<path d="M21.3213 6.37446C19.4697 5.36356 17.3778 4.90316 15.2759 5.03328C13.1741 5.1734 11.1523 5.90404 9.45079 7.14512C7.71925 8.39625 6.38805 10.1178 5.61737 12.1095C5.21701 13.1404 4.96679 14.2214 4.88672 15.3224H7.64919C7.83932 13.2706 8.78019 11.3588 10.2915 9.95765C11.8029 8.55638 13.7746 7.75565 15.8364 7.72565C17.9483 7.68565 20.0001 8.44632 21.5815 9.85752C23.1529 11.2688 24.1438 13.2205 24.3439 15.3224H27.0964C26.9162 12.3097 25.2247 8.51638 21.3213 6.37446ZM16.7773 13.4007C16.5971 13.6208 16.3569 13.771 16.0766 13.851C15.8064 13.9311 15.5161 13.9211 15.2459 13.821C15.0457 13.771 14.8655 13.6709 14.7154 13.5208C14.5653 13.3806 14.4552 13.2005 14.3951 13.0103C14.3351 12.8202 14.3251 12.61 14.3651 12.4098C14.4051 12.2097 14.4953 12.0194 14.6253 11.8693C14.8655 11.6091 15.1959 11.4389 15.5562 11.4089C15.9165 11.3789 16.2668 11.479 16.5471 11.6992C16.6371 11.7692 16.7172 11.8493 16.7973 11.9294C16.8973 11.8593 16.9975 11.7792 17.1175 11.6992C16.9875 11.509 16.8173 11.3488 16.6171 11.2388C16.2468 11.0386 15.8264 10.9585 15.4061 11.0186C15.1859 11.0386 14.9657 11.1086 14.7655 11.2087C14.5653 11.3188 14.3951 11.459 14.255 11.6291C14.1149 11.7992 14.0148 11.9894 13.9547 12.1996C13.8947 12.4098 13.8847 12.63 13.9147 12.8402C13.9447 13.1104 14.0449 13.3806 14.205 13.6008C14.3651 13.821 14.5853 14.0012 14.8355 14.1113C15.1358 14.2514 15.4761 14.3014 15.8064 14.2715C16.2067 14.2614 16.5971 14.1013 16.9073 13.841C16.9875 13.771 17.0475 13.6909 17.1275 13.6208L16.7873 13.3806C16.7873 13.3806 16.7873 13.3906 16.7773 13.4007ZM19.3095 14.2214H19.7899L20.2903 13.2205H21.6215L22.132 14.2214H22.6024C22.0519 13.1104 21.5115 12.0094 20.9609 10.9084C20.4105 12.0094 19.86 13.1104 19.3095 14.2214ZM20.5005 12.8102C20.6507 12.4998 20.8108 12.1996 20.9609 11.8893C21.1211 12.1996 21.2712 12.5099 21.4213 12.8102H20.5005ZM9.42072 14.2214H9.90119C10.0713 13.8911 10.2415 13.5508 10.4016 13.2205H11.7328C11.9029 13.5508 12.0731 13.8911 12.2433 14.2214H12.7137L11.0722 10.8984C10.5217 12.0094 9.97119 13.1104 9.42072 14.2214ZM10.6018 12.8102C10.7519 12.4998 10.9121 12.1996 11.0722 11.8793C11.2323 12.1996 11.3825 12.4998 11.5326 12.8102H10.6018ZM19.6999 12.3898C19.7699 12.2797 19.8199 12.1496 19.8299 12.0194C19.8399 11.8893 19.8199 11.7492 19.7699 11.6291C19.7199 11.509 19.6398 11.3989 19.5397 11.3088C19.4396 11.2187 19.3195 11.1587 19.1894 11.1286C19.0393 11.0886 18.8791 11.0686 18.719 11.0786C18.3987 11.0686 18.0784 11.0786 17.7481 11.0786C17.7281 11.0786 17.7081 11.0786 17.6981 11.0786V14.2214H18.1185V12.8102C18.2285 12.8102 18.3286 12.8102 18.4287 12.8102C18.6289 12.8001 18.8391 12.8001 19.0393 12.7801C19.1694 12.7701 19.2995 12.7301 19.4196 12.67C19.5297 12.59 19.6298 12.4998 19.6999 12.3898ZM19.3595 12.0895C19.3295 12.1796 19.2695 12.2497 19.1894 12.2997C19.1093 12.3497 19.0193 12.3798 18.9291 12.3798C18.6689 12.3898 18.3987 12.3798 18.1285 12.3798V11.459C18.4087 11.469 18.6789 11.469 18.9492 11.479C19.0193 11.479 19.0893 11.499 19.1493 11.529C19.2094 11.559 19.2695 11.6091 19.3095 11.6691C19.3495 11.7292 19.3695 11.7992 19.3795 11.8693C19.3895 11.9494 19.3795 12.0294 19.3595 12.0895ZM12.9639 14.2114H13.3943V11.0686H12.9639V14.2114Z" fill="#9F9F9F"/>
<path d="M16.134 24.5167C14.3524 24.5667 12.5909 24.0263 11.1496 22.9853C9.24793 21.6241 8.10686 19.7825 7.69653 17.4805H4.91406C5.49458 22.9653 10.3889 27.6995 16.6745 27.3092C22.4696 26.9589 26.5632 22.3148 27.0337 17.4805H24.2512C23.9409 19.4222 22.95 21.1838 21.4687 22.4649C19.9874 23.7561 18.0957 24.4767 16.134 24.5167ZM15.0831 21.444C15.3033 21.5341 15.5435 21.5841 15.7837 21.5741C16.0239 21.5741 16.2641 21.5141 16.4843 21.414C16.6845 21.3339 16.8647 21.1938 17.0148 21.0337C17.1549 20.8635 17.265 20.6633 17.3151 20.4531C17.4051 20.1128 17.4051 19.7625 17.295 19.4222C17.245 19.2421 17.1549 19.0719 17.0348 18.9218C16.9147 18.7717 16.7645 18.6515 16.5944 18.5715C16.3442 18.4413 16.0639 18.3813 15.7837 18.3913C15.7236 18.3913 15.6636 18.3913 15.6035 18.3913C15.5635 18.3913 15.5335 18.4013 15.4934 18.4013C15.2632 18.4213 15.033 18.5114 14.8329 18.6415C14.6327 18.7717 14.4725 18.9518 14.3624 19.152C14.2023 19.4422 14.1422 19.7725 14.1623 20.0928C14.2023 20.7233 14.4925 21.1938 15.0831 21.444ZM15.3533 18.9518C15.5535 18.8717 15.7837 18.8517 15.9939 18.8917C16.2041 18.9418 16.4042 19.0519 16.5443 19.2221C16.7245 19.4623 16.8146 19.7525 16.7946 20.0528C16.7745 20.3531 16.6445 20.6333 16.4243 20.8435C15.9539 21.2639 14.9629 21.1737 14.7528 20.2729C14.7327 20.1829 14.7227 20.0928 14.7227 20.0528C14.7027 19.5423 14.9429 19.1219 15.3533 18.9518ZM12.721 21.0737C12.6009 21.0737 12.4707 21.0537 12.3607 20.9936C12.2505 20.9335 12.1605 20.8535 12.0904 20.7534C11.9603 20.8935 11.8302 21.0337 11.7001 21.1737C11.8001 21.2939 11.9303 21.3839 12.0704 21.444C12.3507 21.5641 12.6509 21.5941 12.9512 21.5441C13.4416 21.464 13.7619 21.1437 13.7919 20.6733C13.8119 20.5132 13.7819 20.343 13.7019 20.2029C13.6218 20.0628 13.5017 19.9427 13.3515 19.8726C13.2214 19.8125 13.0813 19.7625 12.9512 19.7125C12.8011 19.6624 12.6509 19.5923 12.5008 19.5223C12.4307 19.4823 12.3807 19.4222 12.3607 19.3521C12.3407 19.2821 12.3407 19.202 12.3707 19.1319C12.3907 19.0819 12.4207 19.0319 12.4607 18.9918C12.5008 18.9518 12.5508 18.9318 12.6009 18.9117C12.731 18.8617 12.8811 18.8517 13.0213 18.8917C13.1613 18.9318 13.2815 19.0019 13.3715 19.1119C13.5017 18.9718 13.6318 18.8417 13.7619 18.7016C13.7319 18.6715 13.7119 18.6515 13.6818 18.6415C13.4416 18.4714 13.1513 18.3813 12.8611 18.3913C12.6109 18.3913 12.3607 18.4613 12.1405 18.5915C11.65 18.8917 11.6 19.7625 12.2205 20.0427C12.3707 20.1128 12.5308 20.1529 12.6809 20.2129C12.8111 20.2629 12.9412 20.323 13.0613 20.3931C13.1013 20.4231 13.1413 20.4631 13.1613 20.5132C13.1914 20.5632 13.2014 20.6133 13.2014 20.6633C13.2014 20.7133 13.1914 20.7734 13.1714 20.8235C13.1513 20.8735 13.1113 20.9135 13.0713 20.9536C13.0012 21.0337 12.8611 21.0737 12.721 21.0737ZM18.0957 21.0937C18.5962 21.5841 19.1867 21.6742 19.8373 21.474C20.0775 21.3939 20.2777 21.2338 20.4178 21.0337L19.9674 20.7133C19.9474 20.7334 19.9373 20.7434 19.9273 20.7634C19.4869 21.2939 18.7863 21.0937 18.4961 20.7233C18.396 20.5933 18.3259 20.4431 18.2859 20.2729C18.2459 20.1128 18.2359 19.9427 18.2659 19.7725C18.2959 19.5223 18.416 19.2921 18.6062 19.1219C18.9065 18.8517 19.507 18.7216 19.8973 19.152C19.9073 19.162 19.9173 19.172 19.9273 19.172L20.3477 18.8617C20.2376 18.7216 20.0975 18.6115 19.9373 18.5314C19.6471 18.3913 19.3168 18.3513 19.0065 18.4013C18.8063 18.4213 18.6162 18.4914 18.4461 18.5915C18.2759 18.6916 18.1257 18.8217 18.0057 18.9818C17.7755 19.3021 17.6653 19.6925 17.6954 20.0828C17.6853 20.4631 17.8355 20.8235 18.0957 21.0937ZM16.9647 22.2147C16.8947 22.2747 16.8546 22.3648 16.8446 22.4549C16.8346 22.545 16.8546 22.6351 16.9147 22.7151C16.9447 22.7551 16.9847 22.7852 17.0348 22.8152C17.0849 22.8352 17.1349 22.8553 17.1849 22.8553C17.235 22.8653 17.285 22.8553 17.3351 22.8353C17.3851 22.8152 17.4251 22.7852 17.4551 22.7451C17.4652 22.9253 17.4351 23.0254 17.3351 23.0655C17.265 23.0955 17.1949 23.1055 17.1249 23.0855C17.0548 23.0655 16.9847 23.0254 16.9447 22.9753C16.9147 23.0054 16.8847 23.0354 16.8647 23.0755C16.9247 23.1355 16.9947 23.1755 17.0748 23.1955C17.1549 23.2156 17.235 23.2156 17.3151 23.1955C17.3751 23.1855 17.4351 23.1555 17.4752 23.1155C17.5252 23.0755 17.5553 23.0154 17.5653 22.9553C17.5753 22.9053 17.5853 22.8553 17.5853 22.8052C17.5853 22.605 17.5853 22.4149 17.5853 22.2147C17.5853 22.1947 17.5853 22.1747 17.5853 22.1647H17.4752C17.4752 22.1947 17.4752 22.2247 17.4652 22.2647C17.4051 22.1947 17.3251 22.1546 17.2249 22.1446C17.1249 22.1346 17.0348 22.1647 16.9647 22.2147ZM17.4551 22.4949C17.4551 22.5249 17.4551 22.565 17.4351 22.595C17.4251 22.6251 17.4051 22.6551 17.3851 22.6751C17.3651 22.6951 17.3351 22.7151 17.305 22.7351C17.275 22.7451 17.245 22.7551 17.2049 22.7551C17.1449 22.7551 17.0849 22.7251 17.0348 22.6851C16.9947 22.6351 16.9647 22.575 16.9647 22.5149C16.9647 22.4849 16.9647 22.4549 16.9747 22.4249C16.9847 22.3949 17.0047 22.3648 17.0248 22.3448C17.0448 22.3248 17.0748 22.3047 17.1049 22.2947C17.1349 22.2847 17.1649 22.2747 17.1949 22.2747C17.2249 22.2747 17.255 22.2847 17.285 22.2947C17.3151 22.3047 17.3451 22.3248 17.3651 22.3448C17.3851 22.3648 17.4051 22.3949 17.4151 22.4249C17.4451 22.4249 17.4551 22.4549 17.4551 22.4949ZM13.6318 22.1546H13.5217V23.1755H13.6318V22.7451C13.8119 22.8953 13.9921 22.9053 14.1322 22.7752C14.1923 22.7151 14.2323 22.6251 14.2423 22.535C14.2523 22.4449 14.2223 22.3548 14.1723 22.2847C14.1222 22.2147 14.0521 22.1747 13.9721 22.1546C13.912 22.1346 13.852 22.1446 13.7919 22.1546C13.7319 22.1647 13.6818 22.2047 13.6318 22.2547C13.6318 22.2147 13.6318 22.1847 13.6318 22.1546ZM13.882 22.2447C13.912 22.2447 13.9521 22.2547 13.9821 22.2647C14.0121 22.2747 14.0421 22.2947 14.0621 22.3248C14.0822 22.3448 14.1022 22.3748 14.1122 22.4049C14.1222 22.4349 14.1322 22.4649 14.1222 22.5049C14.1222 22.5349 14.1222 22.565 14.1122 22.595C14.1022 22.6251 14.0822 22.6551 14.0621 22.6751C14.0421 22.6951 14.0121 22.7151 13.9821 22.7351C13.9521 22.7451 13.9221 22.7551 13.892 22.7551C13.862 22.7551 13.8219 22.7451 13.7919 22.7351C13.7619 22.7251 13.7319 22.7051 13.7119 22.6851C13.6919 22.6651 13.6718 22.6351 13.6618 22.605C13.6518 22.575 13.6418 22.545 13.6418 22.5049C13.6418 22.4749 13.6418 22.4349 13.6618 22.4049C13.6718 22.3748 13.6919 22.3448 13.7119 22.3248C13.7319 22.3047 13.7619 22.2847 13.7919 22.2647C13.8119 22.2547 13.8419 22.2447 13.882 22.2447ZM15.5035 22.4949C15.5035 22.545 15.5135 22.595 15.5235 22.6351C15.5435 22.6851 15.5735 22.7251 15.6035 22.7551C15.6435 22.7852 15.6836 22.8152 15.7236 22.8353C15.7737 22.8553 15.8137 22.8553 15.8637 22.8553C15.9138 22.8553 15.9639 22.8553 16.0039 22.8353C16.0539 22.8152 16.0939 22.7952 16.124 22.7551C16.154 22.7151 16.1841 22.6851 16.2041 22.6351C16.2241 22.585 16.2341 22.545 16.2241 22.4949C16.2241 22.4449 16.2241 22.3949 16.2041 22.3548C16.1841 22.3047 16.164 22.2647 16.124 22.2347C16.0939 22.2047 16.0439 22.1747 16.0039 22.1546C15.9539 22.1346 15.9138 22.1346 15.8637 22.1346C15.8137 22.1346 15.7637 22.1346 15.7236 22.1546C15.6736 22.1747 15.6335 22.1947 15.6035 22.2347C15.5635 22.2647 15.5435 22.3047 15.5235 22.3548C15.5135 22.3949 15.5035 22.4449 15.5035 22.4949ZM16.114 22.4949C16.114 22.5249 16.114 22.565 16.104 22.595C16.0939 22.6251 16.0739 22.6551 16.0539 22.6751C16.0339 22.6951 16.0039 22.7151 15.9739 22.7351C15.9438 22.7451 15.9138 22.7551 15.8737 22.7551C15.8437 22.7551 15.8137 22.7451 15.7837 22.7351C15.7537 22.7251 15.7236 22.7051 15.7036 22.6851C15.6836 22.6651 15.6636 22.6351 15.6536 22.605C15.6435 22.575 15.6335 22.545 15.6335 22.5149C15.6335 22.4849 15.6335 22.4449 15.6435 22.4149C15.6536 22.3849 15.6736 22.3548 15.6936 22.3348C15.7136 22.3148 15.7437 22.2947 15.7737 22.2747C15.8037 22.2647 15.8337 22.2547 15.8737 22.2547C15.9038 22.2547 15.9438 22.2647 15.9739 22.2747C16.0039 22.2847 16.0339 22.3047 16.0539 22.3348C16.0739 22.3548 16.0939 22.3849 16.104 22.4149C16.114 22.4349 16.114 22.4649 16.114 22.4949ZM18.8664 22.4949C18.8664 22.545 18.8764 22.595 18.8965 22.6351C18.9165 22.6851 18.9465 22.7251 18.9765 22.7551C19.0165 22.7852 19.0566 22.8152 19.0966 22.8353C19.1467 22.8553 19.1867 22.8553 19.2367 22.8553C19.2868 22.8553 19.3368 22.8453 19.3769 22.8353C19.4269 22.8152 19.4669 22.7952 19.497 22.7551C19.527 22.7251 19.557 22.6751 19.5771 22.6351C19.5971 22.585 19.5971 22.545 19.5971 22.4949C19.5971 22.4449 19.5871 22.3949 19.5771 22.3548C19.557 22.3148 19.537 22.2647 19.497 22.2347C19.4569 22.2047 19.4169 22.1747 19.3769 22.1546C19.3268 22.1346 19.2868 22.1346 19.2367 22.1346C19.1867 22.1346 19.1367 22.1346 19.0966 22.1546C19.0466 22.1747 19.0065 22.1947 18.9765 22.2347C18.9365 22.2647 18.9165 22.3047 18.8965 22.3548C18.8764 22.4049 18.8664 22.4449 18.8664 22.4949ZM19.4769 22.5049C19.4769 22.5349 19.4769 22.565 19.4669 22.595C19.4569 22.6251 19.4369 22.6551 19.4169 22.6751C19.3969 22.6951 19.3669 22.7151 19.3368 22.7251C19.3068 22.7351 19.2768 22.7451 19.2467 22.7451C19.2167 22.7451 19.1767 22.7351 19.1467 22.7251C19.1167 22.7151 19.0866 22.6951 19.0666 22.6651C19.0466 22.6451 19.0265 22.6151 19.0165 22.585C19.0065 22.555 18.9965 22.5249 18.9965 22.4849C18.9965 22.4549 18.9965 22.4149 19.0165 22.3849C19.0365 22.3548 19.0466 22.3248 19.0666 22.3047C19.0866 22.2847 19.1167 22.2647 19.1467 22.2447C19.1767 22.2347 19.2067 22.2247 19.2467 22.2247C19.2768 22.2247 19.3168 22.2347 19.3469 22.2447C19.3769 22.2547 19.4069 22.2747 19.4269 22.3047C19.4469 22.3248 19.4669 22.3548 19.4769 22.3849C19.4669 22.4349 19.4769 22.4649 19.4769 22.5049ZM11.8602 22.8453C11.9203 22.8653 11.9803 22.8653 12.0404 22.8453C12.1004 22.8252 12.1505 22.7952 12.1905 22.7451C12.1905 22.7852 12.2005 22.8052 12.2005 22.8252H12.3006C12.3006 22.6851 12.3006 22.545 12.3006 22.4049C12.3006 22.2547 12.2505 22.1747 12.1505 22.1446C12.0203 22.1046 11.8102 22.1346 11.7501 22.2447C11.7701 22.2647 11.7901 22.2847 11.8102 22.3047C12.0404 22.1847 12.1805 22.2247 12.1805 22.4049C12.1505 22.4049 12.1105 22.4049 12.0804 22.4049C12.0003 22.4149 11.9103 22.4249 11.8302 22.4549C11.7901 22.4649 11.7501 22.4949 11.7301 22.535C11.7101 22.575 11.7001 22.6251 11.7101 22.6651C11.7101 22.7051 11.7301 22.7451 11.7601 22.7752C11.7801 22.8152 11.8202 22.8353 11.8602 22.8453ZM11.9203 22.535C12.0003 22.5249 12.0904 22.5149 12.1705 22.5049C12.1805 22.6751 12.1004 22.7752 11.9503 22.7652C11.9203 22.7652 11.8903 22.7551 11.8702 22.7451C11.8502 22.7251 11.8302 22.7051 11.8302 22.6751C11.8302 22.6651 11.8302 22.6451 11.8302 22.6351C11.8302 22.6251 11.8402 22.605 11.8502 22.595C11.8602 22.585 11.8702 22.575 11.8802 22.565C11.8903 22.545 11.9103 22.535 11.9203 22.535ZM14.7427 22.4149C14.6627 22.4249 14.5726 22.4349 14.4925 22.4649C14.4525 22.4749 14.4125 22.5049 14.3925 22.545C14.3725 22.585 14.3624 22.6251 14.3725 22.6751C14.3725 22.7151 14.3925 22.7551 14.4225 22.7852C14.4525 22.8152 14.4825 22.8353 14.5326 22.8453C14.5926 22.8653 14.6527 22.8653 14.7127 22.8553C14.7728 22.8352 14.8229 22.8052 14.8629 22.7551C14.8729 22.7852 14.8729 22.8152 14.8829 22.8353H14.983C14.983 22.6851 14.983 22.545 14.983 22.3949C14.983 22.3448 14.983 22.3047 14.9529 22.2547C14.9229 22.2047 14.8929 22.1747 14.8529 22.1546C14.7828 22.1246 14.7027 22.1146 14.6327 22.1346C14.5526 22.1446 14.4825 22.1847 14.4325 22.2347L14.4925 22.3148C14.5326 22.2747 14.5826 22.2547 14.6427 22.2447C14.7027 22.2347 14.7528 22.2447 14.8028 22.2647C14.8229 22.2747 14.8429 22.3047 14.8629 22.3248C14.8729 22.3548 14.8729 22.3748 14.8729 22.4049C14.8028 22.4149 14.7728 22.4149 14.7427 22.4149ZM14.6027 22.7551C14.5726 22.7551 14.5526 22.7451 14.5326 22.7251C14.5125 22.7051 14.5025 22.6851 14.4925 22.6551C14.4825 22.6251 14.4925 22.605 14.5025 22.585C14.5125 22.565 14.5426 22.545 14.5626 22.545C14.6527 22.5249 14.7427 22.5249 14.8329 22.5049C14.8529 22.6851 14.7528 22.7752 14.6027 22.7551ZM18.5461 22.7451C18.5061 22.7551 18.4561 22.7551 18.416 22.7451C18.376 22.7351 18.3359 22.7051 18.3159 22.6651C18.2859 22.6951 18.2559 22.7151 18.2259 22.7351C18.2659 22.7952 18.3259 22.8352 18.386 22.8553C18.4561 22.8753 18.5261 22.8753 18.5861 22.8553C18.6362 22.8453 18.6863 22.8252 18.7163 22.7852C18.7463 22.7451 18.7663 22.6951 18.7663 22.6451C18.7663 22.545 18.7063 22.4849 18.5962 22.4549C18.5461 22.4449 18.4961 22.4349 18.4461 22.4149C18.416 22.4049 18.376 22.3648 18.386 22.3448C18.396 22.3248 18.406 22.3148 18.416 22.2947C18.426 22.2847 18.4461 22.2747 18.4661 22.2647C18.5061 22.2547 18.5461 22.2547 18.5761 22.2647C18.6162 22.2747 18.6462 22.3047 18.6663 22.3348C18.6963 22.3148 18.7263 22.2947 18.7563 22.2747C18.6863 22.1146 18.426 22.1146 18.3259 22.2147C18.3059 22.2347 18.2859 22.2647 18.2759 22.2947C18.2659 22.3248 18.2659 22.3548 18.2759 22.3849C18.2859 22.4149 18.2959 22.4449 18.3159 22.4649C18.3359 22.4849 18.366 22.5049 18.386 22.5149C18.4461 22.535 18.5161 22.555 18.5761 22.565C18.6262 22.575 18.6663 22.605 18.6562 22.6551C18.6462 22.6751 18.6362 22.6951 18.6262 22.7051C18.5861 22.7251 18.5661 22.7351 18.5461 22.7451ZM20.2577 22.3248C20.2877 22.2947 20.3177 22.2747 20.3477 22.2447C20.2777 22.1747 20.1776 22.1346 20.0775 22.1346C19.9774 22.1346 19.8773 22.1747 19.8073 22.2447C19.7472 22.3248 19.7171 22.4249 19.7171 22.5249C19.7272 22.6251 19.7672 22.7151 19.8473 22.7852C19.9173 22.8353 20.0074 22.8653 20.0975 22.8553C20.1876 22.8453 20.2677 22.8052 20.3277 22.7351C20.3077 22.7151 20.2777 22.6851 20.2476 22.6651C20.2276 22.6851 20.2076 22.7051 20.1776 22.7251C20.1475 22.7351 20.1175 22.7451 20.0875 22.7451C20.0575 22.7451 20.0275 22.7451 19.9974 22.7351C19.9674 22.7251 19.9373 22.7051 19.9173 22.6851C19.8673 22.6351 19.8473 22.575 19.8373 22.5049C19.8373 22.4349 19.8473 22.3748 19.8873 22.3148C19.9073 22.2847 19.9373 22.2647 19.9674 22.2547C19.9974 22.2447 20.0275 22.2347 20.0675 22.2347C20.0975 22.2347 20.1375 22.2447 20.1675 22.2547C20.2076 22.2847 20.2376 22.3047 20.2577 22.3248ZM13.0913 22.2547C13.1313 22.2447 13.1714 22.2447 13.2114 22.2547C13.2515 22.2647 13.2815 22.2947 13.3115 22.3248C13.3415 22.2947 13.3715 22.2647 13.4016 22.2447C13.3315 22.1747 13.2415 22.1346 13.1513 22.1346C13.0513 22.1346 12.9612 22.1647 12.8911 22.2347C12.8211 22.3047 12.7911 22.4049 12.7911 22.5049C12.7911 22.605 12.8311 22.6951 12.9011 22.7752C12.9712 22.8352 13.0613 22.8653 13.1513 22.8653C13.2415 22.8653 13.3315 22.8252 13.4016 22.7652L13.3315 22.6751C13.2014 22.7752 13.0813 22.7852 12.9912 22.6951C12.9512 22.6451 12.9211 22.585 12.9211 22.5249C12.9211 22.4649 12.9311 22.3949 12.9712 22.3448C13.0012 22.2947 13.0513 22.2647 13.0913 22.2547ZM18.1958 21.7743C18.1558 21.7643 18.1357 21.7543 18.0957 21.7343C17.9456 22.1146 17.8055 22.4849 17.6553 22.8553L17.7554 22.8953C17.9055 22.5249 18.0457 22.1546 18.1958 21.7743ZM16.5343 22.4049C16.5343 22.3849 16.5443 22.3548 16.5544 22.3348C16.5644 22.3148 16.5844 22.2947 16.6044 22.2847C16.6244 22.2747 16.6445 22.2647 16.6745 22.2547C16.6945 22.2447 16.7245 22.2447 16.7445 22.2547C16.7545 22.2547 16.7745 22.2547 16.7846 22.2547V22.1446C16.7345 22.1346 16.6845 22.1446 16.6345 22.1546C16.5844 22.1747 16.5443 22.2047 16.5143 22.2447C16.5043 22.2047 16.5043 22.1847 16.5043 22.1647H16.4043V22.8453H16.5143C16.5143 22.7952 16.5143 22.7451 16.5143 22.7051C16.5243 22.605 16.5243 22.5049 16.5343 22.4049ZM12.5108 22.8353H12.6209V22.1546H12.5108V22.8353ZM15.1631 22.7551C15.1631 22.7652 15.1631 22.7752 15.1631 22.7952C15.1631 22.8052 15.1731 22.8152 15.1831 22.8252C15.1931 22.8352 15.2032 22.8453 15.2132 22.8453C15.2232 22.8453 15.2332 22.8553 15.2432 22.8453C15.2933 22.8453 15.3233 22.8152 15.3333 22.7551C15.3333 22.7451 15.3333 22.7351 15.3233 22.7251C15.3233 22.7151 15.3133 22.7051 15.3033 22.6951C15.2933 22.6851 15.2833 22.6851 15.2732 22.6751C15.2632 22.6751 15.2532 22.6651 15.2432 22.6751C15.2332 22.6751 15.2232 22.6751 15.2132 22.6751C15.2032 22.6751 15.1931 22.6851 15.1831 22.6951C15.1731 22.7051 15.1731 22.7151 15.1631 22.7251C15.1631 22.7351 15.1631 22.7451 15.1631 22.7551ZM12.6409 21.8944C12.6409 21.8343 12.6109 21.8043 12.5608 21.8043C12.5508 21.8043 12.5408 21.8043 12.5308 21.8043C12.5208 21.8043 12.5108 21.8143 12.5008 21.8243C12.4908 21.8343 12.4908 21.8443 12.4807 21.8543C12.4707 21.8644 12.4707 21.8744 12.4707 21.8844C12.4707 21.8944 12.4707 21.9044 12.4707 21.9144C12.4707 21.9244 12.4807 21.9345 12.4908 21.9445C12.5008 21.9545 12.5108 21.9545 12.5208 21.9645C12.5308 21.9645 12.5408 21.9745 12.5508 21.9745C12.5609 21.9745 12.5709 21.9745 12.5809 21.9745C12.5909 21.9745 12.6009 21.9645 12.6109 21.9545C12.6209 21.9445 12.6209 21.9345 12.6309 21.9244C12.6409 21.9144 12.6409 21.9044 12.6409 21.8944Z" fill="#9F9F9F"/>
<path d="M28.2251 17.3433V15.5117H3.77344V17.3433H28.2251Z" fill="#404040"/>
</svg>
