<svg width="338" height="434" viewBox="0 0 338 434" fill="none" xmlns="http://www.w3.org/2000/svg">
<g clip-path="url(#clip0_3909_11075)">
<mask id="mask0_3909_11075" style="mask-type:alpha" maskUnits="userSpaceOnUse" x="0" y="0" width="1197" height="840">
<path d="M1196.85 0H0V839.493H1196.85V0Z" fill="url(#paint0_radial_3909_11075)"/>
</mask>
<g mask="url(#mask0_3909_11075)">
<path d="M0 41.6016H1197.54" stroke="#6868F7"/>
<path d="M0 83.5742H1197.54" stroke="#6868F7"/>
<path d="M0 125.551H1197.54" stroke="#6868F7"/>
<path d="M0 167.523H1197.54" stroke="#6868F7"/>
<path d="M0 209.5H1197.54" stroke="#6868F7"/>
<path d="M0 251.473H1197.54" stroke="#6868F7"/>
<path d="M0 293.449H1197.54" stroke="#6868F7"/>
<path d="M0 335.422H1197.54" stroke="#6868F7"/>
<path d="M0 377.398H1197.54" stroke="#6868F7"/>
<path d="M0 419.371H1197.54" stroke="#6868F7"/>
<path d="M182.613 2.25V839.494" stroke="#6868F7"/>
<path d="M238.055 2.25V839.494" stroke="#6868F7"/>
<path d="M293.496 2.25V839.494" stroke="#6868F7"/>
<path d="M127.863 2.25V839.494" stroke="#6868F7"/>
<path d="M72.4219 2.25V839.494" stroke="#6868F7"/>
<path d="M16.9806 2.25L16.9805 839.494" stroke="#6868F7"/>
</g>
</g>
<defs>
<radialGradient id="paint0_radial_3909_11075" cx="0" cy="0" r="1" gradientUnits="userSpaceOnUse" gradientTransform="translate(598.772 384.143) rotate(90) scale(352.287 596.453)">
<stop stop-color="#C4C4C4"/>
<stop offset="1" stop-color="#C4C4C4" stop-opacity="0.03"/>
</radialGradient>
<clipPath id="clip0_3909_11075">
<rect width="1192" height="839.493" fill="white"/>
</clipPath>
</defs>
</svg>
