<svg width="32" height="32" viewBox="0 0 32 32" fill="none" xmlns="http://www.w3.org/2000/svg">
<rect width="32" height="32" rx="8" fill="#DAF9D4"/>
<path d="M25.7926 19.4456L24.1219 16.7718C24.1219 16.7718 24.1158 16.7606 24.112 16.7557L23.9803 16.5456C23.7317 16.1466 23.3016 15.9079 22.8317 15.9067L20.1405 15.8979L19.9528 16.1988L16.737 21.345L16.5592 21.6297L17.9067 23.7826C18.1553 24.183 18.5854 24.4216 19.059 24.4216H22.8305C23.2954 24.4216 23.7354 24.1767 23.9815 23.7839L24.1145 23.5714C24.1145 23.5714 24.1195 23.5651 24.1207 23.5627L25.7938 20.8851C26.0686 20.4476 26.0686 19.8819 25.7938 19.4456H25.7926ZM25.283 20.5656L23.6098 23.2432C23.6024 23.2556 23.5936 23.2655 23.5862 23.2755C23.5278 23.3414 23.452 23.3501 23.4184 23.3501C23.3799 23.3501 23.2854 23.3389 23.2245 23.2419L21.5514 20.5644C21.5327 20.5346 21.5165 20.5035 21.5016 20.4699C21.4867 20.4376 21.4755 20.4053 21.4656 20.3717C21.4283 20.2375 21.4283 20.0933 21.4656 19.959C21.4842 19.8932 21.5128 19.8273 21.5501 19.7676L23.2207 17.0926C23.2207 17.0926 23.2233 17.0888 23.2245 17.0863C23.2642 17.0267 23.314 16.9993 23.3575 16.9906C23.3749 16.9857 23.3898 16.9844 23.4023 16.982C23.4085 16.982 23.4146 16.982 23.4209 16.982C23.4594 16.982 23.5551 16.9943 23.6148 17.0913L25.2854 19.7651C25.4384 20.0087 25.4384 20.322 25.2854 20.5656H25.283Z" fill="#005900"/>
<path d="M20.8483 12.976C21.1218 12.5371 21.1218 11.9728 20.8483 11.5365L19.1776 8.86269L19.0384 8.63769C18.7885 8.23867 18.3585 8 17.886 8H14.1147C13.6436 8 13.2134 8.23867 12.9623 8.63893L6.20883 19.4473C6.07334 19.6636 6 19.9134 6 20.167C6 20.4206 6.0721 20.6704 6.20759 20.8855L8.01872 23.7855C8.26857 24.1858 8.69867 24.4232 9.16978 24.4232H12.9412C13.4148 24.4232 13.8449 24.1846 14.0935 23.7843L14.2315 23.5655C14.2315 23.5655 14.2315 23.5655 14.2315 23.563L14.234 23.558L15.5802 21.4051L19.5704 15.0195L20.8458 12.9772L20.8483 12.976ZM20.4542 12.2562C20.4542 12.3942 20.4157 12.5334 20.3374 12.6565L13.7219 23.2448C13.6622 23.3405 13.5665 23.3517 13.5279 23.3517C13.4894 23.3517 13.3949 23.3405 13.334 23.2448L11.6621 20.5661C11.5105 20.3237 11.5105 20.0116 11.6621 19.7668L18.2776 9.1809C18.3373 9.08394 18.433 9.07276 18.4715 9.07276C18.5101 9.07276 18.6058 9.08394 18.6667 9.18215L20.3374 11.856C20.4157 11.979 20.4542 12.1182 20.4542 12.2562Z" fill="#005900"/>
</svg>
