<svg width="33" height="32" viewBox="0 0 33 32" fill="none" xmlns="http://www.w3.org/2000/svg">
<path fill-rule="evenodd" clip-rule="evenodd" d="M7.83362 2C6.45228 2 5.33362 3.12 5.33362 4.5V27.5C5.33362 28.88 6.45362 30 7.83362 30H24.8336C26.2136 30 27.3336 28.88 27.3336 27.5V17C27.3336 15.6739 26.8068 14.4021 25.8692 13.4645C24.9315 12.5268 23.6597 12 22.3336 12H19.8336C19.1706 12 18.5347 11.7366 18.0659 11.2678C17.597 10.7989 17.3336 10.163 17.3336 9.5V7C17.3336 5.67392 16.8068 4.40215 15.8692 3.46447C14.9315 2.52678 13.6597 2 12.3336 2H7.83362ZM10.3336 20C10.3336 19.7348 10.439 19.4804 10.6265 19.2929C10.814 19.1054 11.0684 19 11.3336 19H21.3336C21.5988 19 21.8532 19.1054 22.0407 19.2929C22.2283 19.4804 22.3336 19.7348 22.3336 20C22.3336 20.2652 22.2283 20.5196 22.0407 20.7071C21.8532 20.8946 21.5988 21 21.3336 21H11.3336C11.0684 21 10.814 20.8946 10.6265 20.7071C10.439 20.5196 10.3336 20.2652 10.3336 20ZM11.3336 23C11.0684 23 10.814 23.1054 10.6265 23.2929C10.439 23.4804 10.3336 23.7348 10.3336 24C10.3336 24.2652 10.439 24.5196 10.6265 24.7071C10.814 24.8946 11.0684 25 11.3336 25H16.3336C16.5988 25 16.8532 24.8946 17.0407 24.7071C17.2283 24.5196 17.3336 24.2652 17.3336 24C17.3336 23.7348 17.2283 23.4804 17.0407 23.2929C16.8532 23.1054 16.5988 23 16.3336 23H11.3336Z" fill="#560059"/>
<path d="M17.6279 2.42126C18.73 3.69188 19.3356 5.31799 19.3333 6.99993V9.49993C19.3333 9.77593 19.5573 9.99993 19.8333 9.99993H22.3333C24.0152 9.9976 25.6413 10.6032 26.9119 11.7053C26.3253 9.47421 25.1566 7.439 23.5254 5.80778C21.8942 4.17656 19.859 3.00788 17.6279 2.42126Z" fill="#560059"/>
</svg>
