<svg width="24" height="24" viewBox="0 0 24 24" fill="none" xmlns="http://www.w3.org/2000/svg">
<path fill-rule="evenodd" clip-rule="evenodd" d="M19.916 4.626C20.0815 4.73634 20.1964 4.90789 20.2354 5.10293C20.2744 5.29796 20.2343 5.5005 20.124 5.666L11.124 19.166C11.0624 19.2582 10.9812 19.3357 10.8861 19.3927C10.7909 19.4498 10.6844 19.485 10.574 19.4959C10.4636 19.5068 10.3522 19.4931 10.2478 19.4558C10.1433 19.4185 10.0485 19.3584 9.97003 19.28L3.97003 13.28C3.83755 13.1378 3.76543 12.9498 3.76885 12.7555C3.77228 12.5612 3.85099 12.3758 3.98841 12.2384C4.12582 12.101 4.31121 12.0223 4.50551 12.0188C4.69981 12.0154 4.88785 12.0875 5.03003 12.22L10.383 17.573L18.876 4.834C18.9864 4.66852 19.1579 4.55364 19.353 4.51463C19.548 4.47562 19.7505 4.51568 19.916 4.626Z" fill="#26A559" stroke="#26A559"/>
</svg>
