<svg width="32" height="32" viewBox="0 0 32 32" fill="none" xmlns="http://www.w3.org/2000/svg">
<rect width="32" height="32" rx="8" fill="#E1E1FD"/>
<path fill-rule="evenodd" clip-rule="evenodd" d="M13.7625 12.32C16.1625 9.23583 19.9125 7.25 24.125 7.25C24.2908 7.25 24.4497 7.31585 24.5669 7.43306C24.6842 7.55027 24.75 7.70924 24.75 7.875C24.75 12.0883 22.7642 15.8375 19.68 18.2383C19.8083 19.0419 19.7607 19.8637 19.5405 20.647C19.3203 21.4304 18.9328 22.1566 18.4047 22.7757C17.8766 23.3947 17.2205 23.8918 16.4816 24.2327C15.7427 24.5736 14.9387 24.75 14.125 24.75C13.9592 24.75 13.8003 24.6842 13.6831 24.5669C13.5658 24.4497 13.5 24.2908 13.5 24.125V20.6825C12.6899 20.0428 11.9577 19.3103 11.3183 18.5H7.875C7.70924 18.5 7.55027 18.4342 7.43306 18.3169C7.31585 18.1997 7.25 18.0408 7.25 17.875C7.24993 17.0612 7.42645 16.2571 7.76735 15.5182C8.10826 14.7792 8.60544 14.123 9.22459 13.5949C9.84374 13.0668 10.5701 12.6793 11.3536 12.4592C12.137 12.2391 12.9589 12.1916 13.7625 12.32ZM18.5 11.625C18.0027 11.625 17.5258 11.8225 17.1742 12.1742C16.8225 12.5258 16.625 13.0027 16.625 13.5C16.625 13.9973 16.8225 14.4742 17.1742 14.8258C17.5258 15.1775 18.0027 15.375 18.5 15.375C18.9973 15.375 19.4742 15.1775 19.8258 14.8258C20.1775 14.4742 20.375 13.9973 20.375 13.5C20.375 13.0027 20.1775 12.5258 19.8258 12.1742C19.4742 11.8225 18.9973 11.625 18.5 11.625Z" fill="#5353C6"/>
<path d="M10.3834 20.3683C10.4492 20.3193 10.5047 20.2577 10.5467 20.1872C10.5888 20.1166 10.6165 20.0385 10.6283 19.9572C10.6402 19.876 10.6359 19.7932 10.6157 19.7136C10.5956 19.634 10.5599 19.5592 10.5109 19.4933C10.4618 19.4275 10.4002 19.372 10.3297 19.33C10.2591 19.2879 10.181 19.2602 10.0998 19.2484C10.0185 19.2365 9.93573 19.2408 9.85613 19.261C9.77654 19.2811 9.70169 19.3168 9.63586 19.3658C8.99661 19.8414 8.49954 20.4826 8.19843 21.2202C7.89733 21.9579 7.80365 22.7638 7.92753 23.5508C7.94768 23.6819 8.009 23.8032 8.10263 23.8971C8.19626 23.9911 8.31734 24.0528 8.44836 24.0733C9.23547 24.1971 10.0415 24.1033 10.7791 23.8021C11.5167 23.5008 12.1579 23.0036 12.6334 22.3642C12.684 22.2985 12.7211 22.2234 12.7425 22.1433C12.7638 22.0632 12.769 21.9796 12.7578 21.8975C12.7465 21.8153 12.719 21.7362 12.6769 21.6648C12.6348 21.5934 12.5788 21.531 12.5124 21.4814C12.4459 21.4318 12.3702 21.396 12.2898 21.3759C12.2093 21.3558 12.1257 21.352 12.0437 21.3646C11.9617 21.3772 11.8831 21.4059 11.8124 21.4492C11.7416 21.4925 11.6802 21.5494 11.6317 21.6167C11.3411 22.0075 10.963 22.3249 10.5277 22.5434C10.0925 22.7619 9.61207 22.8755 9.12503 22.875C9.12503 21.85 9.61836 20.9392 10.3834 20.3683Z" fill="#5353C6"/>
</svg>
