<svg width="33" height="32" viewBox="0 0 33 32" fill="none" xmlns="http://www.w3.org/2000/svg">
<path d="M16.3329 1C13.9123 0.999456 11.5591 1.79737 9.63803 3.27008C7.71696 4.74278 6.33531 6.80803 5.70721 9.14574C5.07911 11.4834 5.23965 13.9631 6.16394 16.2003C7.08823 18.4375 8.72466 20.3073 10.8196 21.52C11.7343 22.0507 12.3063 22.864 12.3316 23.684C12.3386 23.9036 12.4177 24.1149 12.5568 24.285C12.6958 24.4551 12.8871 24.5748 13.1009 24.6253C13.5703 24.736 14.0476 24.8227 14.5329 24.8853C14.9636 24.94 15.3329 24.5947 15.3329 24.16V17.9453C14.9116 17.899 14.4941 17.8228 14.0836 17.7173C13.9564 17.6846 13.8369 17.6271 13.7319 17.5482C13.6269 17.4692 13.5385 17.3704 13.4717 17.2573C13.4049 17.1442 13.361 17.0191 13.3426 16.889C13.3241 16.759 13.3315 16.6265 13.3643 16.4993C13.397 16.3721 13.4545 16.2526 13.5334 16.1476C13.6123 16.0426 13.7112 15.9542 13.8243 15.8874C13.9374 15.8206 14.0625 15.7767 14.1926 15.7583C14.3226 15.7399 14.455 15.7473 14.5823 15.78C15.7306 16.076 16.9352 16.076 18.0836 15.78C18.2121 15.743 18.3467 15.7321 18.4794 15.748C18.6122 15.7639 18.7404 15.8063 18.8565 15.8726C18.9726 15.939 19.0743 16.0279 19.1554 16.1342C19.2365 16.2405 19.2955 16.362 19.3289 16.4915C19.3622 16.621 19.3693 16.7558 19.3496 16.8881C19.3299 17.0203 19.2839 17.1473 19.2143 17.2615C19.1447 17.3756 19.0529 17.4747 18.9443 17.5528C18.8358 17.6308 18.7126 17.6863 18.5823 17.716C18.1718 17.8219 17.7543 17.8986 17.3329 17.9453V24.1587C17.3329 24.5947 17.7023 24.94 18.1329 24.8853C18.6183 24.8227 19.0956 24.736 19.5649 24.6253C19.7788 24.5748 19.97 24.4551 20.1091 24.285C20.2481 24.1149 20.3273 23.9036 20.3343 23.684C20.3609 22.864 20.9316 22.0507 21.8463 21.52C23.9412 20.3073 25.5776 18.4375 26.5019 16.2003C27.4262 13.9631 27.5867 11.4834 26.9586 9.14574C26.3305 6.80803 24.9489 4.74278 23.0278 3.27008C21.1067 1.79737 18.7535 0.999456 16.3329 1Z" fill="#5F2700"/>
<path fill-rule="evenodd" clip-rule="evenodd" d="M12.3504 26.5333C12.3749 26.4042 12.4245 26.2812 12.4966 26.1714C12.5686 26.0615 12.6615 25.9669 12.7701 25.893C12.8787 25.8191 13.0008 25.7673 13.1294 25.7405C13.258 25.7138 13.3907 25.7127 13.5197 25.7373C15.3787 26.09 17.2874 26.09 19.1464 25.7373C19.277 25.7085 19.4121 25.7062 19.5436 25.7306C19.6751 25.755 19.8004 25.8055 19.912 25.8791C20.0237 25.9528 20.1194 26.0481 20.1936 26.1594C20.2677 26.2707 20.3188 26.3957 20.3438 26.5271C20.3688 26.6585 20.3671 26.7936 20.339 26.9243C20.3108 27.0551 20.2567 27.1789 20.1799 27.2883C20.1031 27.3978 20.005 27.4908 19.8916 27.5617C19.7782 27.6326 19.6518 27.6801 19.5197 27.7013C17.4141 28.1008 15.252 28.1008 13.1464 27.7013C12.886 27.6518 12.6559 27.501 12.5067 27.282C12.3574 27.063 12.3012 26.7937 12.3504 26.5333ZM13.3384 29.7919C13.352 29.6613 13.3913 29.5346 13.4539 29.4192C13.5165 29.3037 13.6012 29.2017 13.7032 29.119C13.8053 29.0363 13.9226 28.9745 14.0485 28.9371C14.1744 28.8998 14.3064 28.8876 14.437 28.9013C15.6976 29.033 16.9685 29.033 18.229 28.9013C18.4928 28.8737 18.7568 28.952 18.9628 29.119C19.1689 29.2861 19.3001 29.5281 19.3277 29.7919C19.3553 30.0557 19.277 30.3197 19.1099 30.5257C18.9429 30.7318 18.7009 30.863 18.437 30.8906C17.0382 31.037 15.6279 31.037 14.229 30.8906C14.0984 30.8769 13.9718 30.8377 13.8563 30.7751C13.7408 30.7125 13.6389 30.6278 13.5561 30.5257C13.4734 30.4237 13.4116 30.3064 13.3743 30.1805C13.3369 30.0546 13.3247 29.9225 13.3384 29.7919Z" fill="#5F2700"/>
</svg>
