<svg width="32" height="32" viewBox="0 0 32 32" fill="none" xmlns="http://www.w3.org/2000/svg">
<rect width="32" height="32" rx="8" fill="#FF7B57"/>
<g clip-path="url(#clip0_861_2679)">
<g clip-path="url(#clip1_861_2679)">
<g filter="url(#filter0_d_861_2679)">
<path d="M24.352 15.5003C23.9064 14.7397 23.2707 14.1082 22.5072 13.6677C21.9243 13.3289 21.3216 13.1138 20.641 13.0207V10.5838C20.9711 10.4471 21.2525 10.2144 21.4489 9.91601C21.6453 9.61759 21.7476 9.26711 21.7427 8.9099C21.7439 8.66866 21.6974 8.42957 21.606 8.20636C21.5145 7.98314 21.3798 7.7802 21.2097 7.6092C21.0395 7.4382 20.8372 7.3025 20.6145 7.20991C20.3917 7.11732 20.1529 7.06965 19.9116 7.06966C19.423 7.06965 18.9543 7.26334 18.6082 7.60828C18.2621 7.95322 18.0669 8.42127 18.0653 8.9099C18.0653 9.65759 18.462 10.2954 19.1441 10.5838V13.0069C18.5791 13.0887 18.0309 13.2608 17.5205 13.5166L10.9973 8.57725C11.0431 8.40482 11.0828 8.22629 11.0828 8.03861C11.0828 6.91249 10.1703 6 9.04416 6C7.91804 6 7.00708 6.91249 7.00708 8.03861C7.00708 9.16472 7.91957 10.0772 9.04568 10.0772C9.43021 10.0772 9.78575 9.96429 10.0925 9.77966L10.5197 10.1032L16.3715 14.3223C16.0618 14.6061 15.7734 14.9296 15.543 15.2927C15.076 16.0328 14.7907 16.8461 14.7907 17.7342V17.9173C14.7928 18.5196 14.9013 19.1167 15.1111 19.6812C15.2882 20.1634 15.5476 20.6029 15.8695 20.9996L13.9255 22.9482C13.3503 22.7346 12.7048 22.8765 12.2699 23.3114C11.9739 23.6059 11.8076 24.0072 11.8091 24.4253C11.8106 24.8434 11.9739 25.2416 12.2714 25.5392C12.569 25.8367 12.9673 26.0015 13.3854 26.0015C13.8034 26.0015 14.2048 25.8367 14.4993 25.5392C14.7938 25.2416 14.9616 24.8434 14.9601 24.4253C14.96 24.2648 14.9353 24.1053 14.8868 23.9522L16.8949 21.9442C17.1696 22.1349 17.4671 22.2951 17.7876 22.4324C18.4462 22.7213 19.1574 22.8709 19.8765 22.8719H20.0139C20.8562 22.8719 21.6512 22.6735 22.3973 22.2692C23.1643 21.8579 23.8087 21.2509 24.265 20.5098C24.7335 19.7621 24.9898 18.9335 24.9898 18.0226V17.9768C24.9898 17.0811 24.7823 16.2556 24.349 15.4987L24.352 15.5003ZM21.8999 19.7148C21.3551 20.3206 20.728 20.6944 20.02 20.6944H19.8857C19.4813 20.6944 19.0846 20.583 18.6985 20.3786C18.2752 20.1585 17.9166 19.8319 17.6579 19.431C17.3771 19.0343 17.2245 18.6009 17.2245 18.1416V18.0043C17.2245 17.5526 17.3115 17.1238 17.5297 16.7195C17.7632 16.2617 18.079 15.9336 18.4986 15.6605C18.9183 15.3874 19.3501 15.2561 19.8414 15.2561H19.8872C20.3297 15.2561 20.7524 15.3431 21.1491 15.546C21.5511 15.7574 21.8924 16.0678 22.141 16.4479C22.387 16.829 22.5392 17.263 22.585 17.7144L22.5957 17.9997C22.5957 18.6207 22.3577 19.196 21.8831 19.7179L21.8999 19.7148Z" fill="white"/>
</g>
</g>
</g>
<defs>
<filter id="filter0_d_861_2679" x="7.00708" y="6" width="17.9827" height="20.5015" filterUnits="userSpaceOnUse" color-interpolation-filters="sRGB">
<feFlood flood-opacity="0" result="BackgroundImageFix"/>
<feColorMatrix in="SourceAlpha" type="matrix" values="0 0 0 0 0 0 0 0 0 0 0 0 0 0 0 0 0 0 127 0" result="hardAlpha"/>
<feOffset dy="0.5"/>
<feComposite in2="hardAlpha" operator="out"/>
<feColorMatrix type="matrix" values="0 0 0 0 1 0 0 0 0 1 0 0 0 0 1 0 0 0 0.5 0"/>
<feBlend mode="normal" in2="BackgroundImageFix" result="effect1_dropShadow_861_2679"/>
<feBlend mode="normal" in="SourceGraphic" in2="effect1_dropShadow_861_2679" result="shape"/>
</filter>
<clipPath id="clip0_861_2679">
<rect width="20" height="20" fill="white" transform="translate(6 6)"/>
</clipPath>
<clipPath id="clip1_861_2679">
<rect width="20" height="20" fill="white" transform="translate(6 6)"/>
</clipPath>
</defs>
</svg>
