<svg width="32" height="32" viewBox="0 0 32 32" fill="none" xmlns="http://www.w3.org/2000/svg">
<rect width="32" height="32" rx="8" fill="#FFF5C7"/>
<path fill-rule="evenodd" clip-rule="evenodd" d="M13.5 9.75C13.6358 9.75003 13.7679 9.79429 13.8763 9.87608C13.9848 9.95788 14.0636 10.0728 14.1009 10.2033L14.7784 12.575C14.9242 13.0858 15.1979 13.5509 15.5735 13.9265C15.9491 14.3021 16.4143 14.5758 16.925 14.7217L19.2967 15.3992C19.4272 15.4365 19.542 15.5154 19.6237 15.6238C19.7054 15.7322 19.7496 15.8643 19.7496 16C19.7496 16.1357 19.7054 16.2678 19.6237 16.3762C19.542 16.4846 19.4272 16.5634 19.2967 16.6008L16.925 17.2783C16.4143 17.4242 15.9491 17.6979 15.5735 18.0735C15.1979 18.4491 14.9242 18.9142 14.7784 19.425L14.1009 21.7967C14.0635 21.9272 13.9846 22.0419 13.8762 22.1236C13.7678 22.2054 13.6358 22.2495 13.5 22.2495C13.3643 22.2495 13.2322 22.2054 13.1238 22.1236C13.0154 22.0419 12.9366 21.9272 12.8992 21.7967L12.2217 19.425C12.0758 18.9142 11.8022 18.4491 11.4266 18.0735C11.051 17.6979 10.5858 17.4242 10.075 17.2783L7.70337 16.6008C7.57288 16.5634 7.4581 16.4846 7.37639 16.3762C7.29468 16.2678 7.25049 16.1357 7.25049 16C7.25049 15.8643 7.29468 15.7322 7.37639 15.6238C7.4581 15.5154 7.57288 15.4365 7.70337 15.3992L10.075 14.7217C10.5858 14.5758 11.051 14.3021 11.4266 13.9265C11.8022 13.5509 12.0758 13.0858 12.2217 12.575L12.8992 10.2033C12.9365 10.0728 13.0153 9.95788 13.1237 9.87608C13.2321 9.79429 13.3642 9.75003 13.5 9.75ZM21 7.25C21.1395 7.24992 21.2749 7.29647 21.3848 7.38224C21.4948 7.46801 21.5729 7.58807 21.6067 7.72333L21.8217 8.58667C22.0184 9.37 22.63 9.98167 23.4134 10.1783L24.2767 10.3933C24.4122 10.4269 24.5326 10.5049 24.6186 10.6148C24.7047 10.7248 24.7514 10.8604 24.7514 11C24.7514 11.1396 24.7047 11.2752 24.6186 11.3852C24.5326 11.4951 24.4122 11.5731 24.2767 11.6067L23.4134 11.8217C22.63 12.0183 22.0184 12.63 21.8217 13.4133L21.6067 14.2767C21.5731 14.4122 21.4952 14.5326 21.3852 14.6186C21.2753 14.7046 21.1397 14.7514 21 14.7514C20.8604 14.7514 20.7248 14.7046 20.6149 14.6186C20.5049 14.5326 20.4269 14.4122 20.3934 14.2767L20.1784 13.4133C20.0822 13.0287 19.8833 12.6774 19.603 12.3971C19.3226 12.1167 18.9713 11.9178 18.5867 11.8217L17.7234 11.6067C17.5878 11.5731 17.4675 11.4951 17.3814 11.3852C17.2954 11.2752 17.2486 11.1396 17.2486 11C17.2486 10.8604 17.2954 10.7248 17.3814 10.6148C17.4675 10.5049 17.5878 10.4269 17.7234 10.3933L18.5867 10.1783C18.9713 10.0822 19.3226 9.88329 19.603 9.60294C19.8833 9.32258 20.0822 8.97131 20.1784 8.58667L20.3934 7.72333C20.4272 7.58807 20.5053 7.46801 20.6152 7.38224C20.7252 7.29647 20.8606 7.24992 21 7.25ZM19.75 18.5C19.8813 18.4999 20.0093 18.5412 20.1158 18.6179C20.2223 18.6946 20.3019 18.803 20.3434 18.9275L20.6717 19.9133C20.7967 20.2858 21.0884 20.5792 21.4617 20.7033L22.4475 21.0325C22.5717 21.0742 22.6796 21.1538 22.756 21.2601C22.8325 21.3664 22.8736 21.4941 22.8736 21.625C22.8736 21.7559 22.8325 21.8836 22.756 21.9899C22.6796 22.0962 22.5717 22.1758 22.4475 22.2175L21.4617 22.5467C21.0892 22.6717 20.7959 22.9633 20.6717 23.3367L20.3425 24.3225C20.3009 24.4466 20.2212 24.5545 20.1149 24.631C20.0086 24.7075 19.881 24.7486 19.75 24.7486C19.6191 24.7486 19.4915 24.7075 19.3851 24.631C19.2788 24.5545 19.1992 24.4466 19.1575 24.3225L18.8284 23.3367C18.767 23.1527 18.6637 22.9856 18.5265 22.8485C18.3894 22.7114 18.2223 22.6081 18.0384 22.5467L17.0525 22.2175C16.9284 22.1758 16.8205 22.0962 16.744 21.9899C16.6676 21.8836 16.6265 21.7559 16.6265 21.625C16.6265 21.4941 16.6676 21.3664 16.744 21.2601C16.8205 21.1538 16.9284 21.0742 17.0525 21.0325L18.0384 20.7033C18.4109 20.5783 18.7042 20.2867 18.8284 19.9133L19.1575 18.9275C19.199 18.8031 19.2785 18.6949 19.3848 18.6182C19.4911 18.5414 19.6189 18.5001 19.75 18.5Z" fill="#FFC900"/>
</svg>
