<svg width="32" height="32" viewBox="0 0 32 32" fill="none" xmlns="http://www.w3.org/2000/svg">
<rect width="32" height="32" rx="8" fill="#F9E2FB"/>
<path fill-rule="evenodd" clip-rule="evenodd" d="M7.875 8.875C7.70924 8.875 7.55027 8.94085 7.43306 9.05806C7.31585 9.17527 7.25 9.33424 7.25 9.5C7.25 9.66576 7.31585 9.82473 7.43306 9.94194C7.55027 10.0592 7.70924 10.125 7.875 10.125H8.5V18.875C8.5 19.538 8.76339 20.1739 9.23223 20.6428C9.70107 21.1116 10.337 21.375 11 21.375H12.0083L11.0317 24.3025C10.9793 24.4599 10.9916 24.6316 11.0658 24.7799C11.14 24.9282 11.2701 25.041 11.4275 25.0933C11.5849 25.1457 11.7566 25.1334 11.9049 25.0592C12.0532 24.985 12.166 24.8549 12.2183 24.6975L12.4925 23.875H19.5075L19.7825 24.6975C19.8394 24.8488 19.9527 24.9722 20.0986 25.0417C20.2446 25.1113 20.4118 25.1215 20.5651 25.0704C20.7185 25.0193 20.8461 24.9108 20.9211 24.7676C20.9961 24.6244 21.0128 24.4577 20.9675 24.3025L19.9925 21.375H21C21.663 21.375 22.2989 21.1116 22.7678 20.6428C23.2366 20.1739 23.5 19.538 23.5 18.875V10.125H24.125C24.2908 10.125 24.4497 10.0592 24.5669 9.94194C24.6842 9.82473 24.75 9.66576 24.75 9.5C24.75 9.33424 24.6842 9.17527 24.5669 9.05806C24.4497 8.94085 24.2908 8.875 24.125 8.875H7.875ZM12.9083 22.625L13.325 21.375H18.675L19.0917 22.625H12.9083ZM19.125 12.625C19.125 12.4592 19.0592 12.3003 18.9419 12.1831C18.8247 12.0658 18.6658 12 18.5 12C18.3342 12 18.1753 12.0658 18.0581 12.1831C17.9408 12.3003 17.875 12.4592 17.875 12.625V17.625C17.875 17.7908 17.9408 17.9497 18.0581 18.0669C18.1753 18.1842 18.3342 18.25 18.5 18.25C18.6658 18.25 18.8247 18.1842 18.9419 18.0669C19.0592 17.9497 19.125 17.7908 19.125 17.625V12.625ZM16.625 14.5C16.625 14.3342 16.5592 14.1753 16.4419 14.0581C16.3247 13.9408 16.1658 13.875 16 13.875C15.8342 13.875 15.6753 13.9408 15.5581 14.0581C15.4408 14.1753 15.375 14.3342 15.375 14.5V17.625C15.375 17.7908 15.4408 17.9497 15.5581 18.0669C15.6753 18.1842 15.8342 18.25 16 18.25C16.1658 18.25 16.3247 18.1842 16.4419 18.0669C16.5592 17.9497 16.625 17.7908 16.625 17.625V14.5ZM14.125 16.375C14.125 16.2092 14.0592 16.0503 13.9419 15.9331C13.8247 15.8158 13.6658 15.75 13.5 15.75C13.3342 15.75 13.1753 15.8158 13.0581 15.9331C12.9408 16.0503 12.875 16.2092 12.875 16.375V17.625C12.875 17.7908 12.9408 17.9497 13.0581 18.0669C13.1753 18.1842 13.3342 18.25 13.5 18.25C13.6658 18.25 13.8247 18.1842 13.9419 18.0669C14.0592 17.9497 14.125 17.7908 14.125 17.625V16.375Z" fill="#560059"/>
</svg>
