<svg width="32" height="32" viewBox="0 0 32 32" fill="none" xmlns="http://www.w3.org/2000/svg">
<rect width="32" height="32" rx="8" fill="#C9F0FF"/>
<path fill-rule="evenodd" clip-rule="evenodd" d="M13.1692 9.16584C13.5208 8.76019 13.9556 8.43496 14.4441 8.21223C14.9325 7.98951 15.4632 7.87449 16 7.875C17.1308 7.875 18.1442 8.375 18.8308 9.16584C19.3664 9.12759 19.904 9.20507 20.4069 9.39301C20.9099 9.58094 21.3666 9.87493 21.7458 10.255C22.1258 10.6342 22.4197 11.0907 22.6076 11.5935C22.7955 12.0964 22.8731 12.6337 22.835 13.1692C23.2405 13.5209 23.5656 13.9557 23.7881 14.4442C24.0107 14.9326 24.1256 15.4632 24.125 16C24.1255 16.5368 24.0105 17.0675 23.7878 17.5559C23.565 18.0444 23.2398 18.4792 22.8342 18.8308C22.8722 19.3663 22.7947 19.9036 22.6067 20.4065C22.4188 20.9093 22.1249 21.3658 21.745 21.745C21.3658 22.1249 20.9093 22.4188 20.4065 22.6067C19.9036 22.7947 19.3663 22.8722 18.8308 22.8342C18.4792 23.2398 18.0444 23.565 17.5559 23.7878C17.0675 24.0105 16.5368 24.1255 16 24.125C15.4632 24.1255 14.9325 24.0105 14.4441 23.7878C13.9556 23.565 13.5208 23.2398 13.1692 22.8342C12.6337 22.8725 12.0962 22.7952 11.5932 22.6074C11.0902 22.4196 10.6335 22.1258 10.2542 21.7458C9.87414 21.3665 9.58018 20.9099 9.39225 20.4069C9.20432 19.9039 9.12682 19.3664 9.165 18.8308C8.75951 18.4791 8.43444 18.0443 8.21186 17.5558C7.98927 17.0674 7.87439 16.5368 7.875 16C7.875 14.8692 8.375 13.8558 9.16584 13.1692C9.12772 12.6337 9.20525 12.0963 9.39319 11.5935C9.58112 11.0907 9.87504 10.6342 10.255 10.255C10.6342 9.87504 11.0907 9.58112 11.5935 9.39318C12.0963 9.20525 12.6337 9.12772 13.1692 9.16584ZM19.0083 14.4883C19.0583 14.4217 19.0945 14.3458 19.1147 14.265C19.135 14.1842 19.1388 14.1001 19.1261 14.0178C19.1134 13.9355 19.0844 13.8565 19.0407 13.7856C18.9971 13.7146 18.9397 13.6531 18.8719 13.6047C18.8041 13.5563 18.7273 13.5219 18.6461 13.5035C18.5648 13.4852 18.4807 13.4833 18.3987 13.4979C18.3167 13.5125 18.2385 13.5434 18.1686 13.5887C18.0987 13.634 18.0385 13.6928 17.9917 13.7617L15.295 17.5367L13.9417 16.1833C13.8232 16.0729 13.6665 16.0128 13.5046 16.0157C13.3426 16.0185 13.1882 16.0841 13.0737 16.1987C12.9591 16.3132 12.8935 16.4676 12.8907 16.6296C12.8878 16.7915 12.9479 16.9482 13.0583 17.0667L14.9333 18.9417C14.9975 19.0058 15.0748 19.0552 15.16 19.0864C15.2451 19.1176 15.3361 19.1299 15.4265 19.1224C15.5169 19.115 15.6045 19.088 15.6834 19.0432C15.7623 18.9985 15.8305 18.9371 15.8833 18.8633L19.0083 14.4883Z" fill="#003D5A"/>
</svg>
