<svg width="32" height="32" viewBox="0 0 32 32" fill="none"
  xmlns="http://www.w3.org/2000/svg">
  <rect width="32" height="32" rx="8" fill="#C9F0FF"/>
  <g filter="url(#filter0_di_254_83088)">
    <path fill-rule="evenodd" clip-rule="evenodd" d="M9.75 9.125C9.08696 9.125 8.45107 9.38839 7.98223 9.85723C7.51339 10.3261 7.25 10.962 7.25 11.625V20.375C7.25 21.038 7.51339 21.6739 7.98223 22.1428C8.45107 22.6116 9.08696 22.875 9.75 22.875H22.25C22.913 22.875 23.5489 22.6116 24.0178 22.1428C24.4866 21.6739 24.75 21.038 24.75 20.375V11.625C24.75 10.962 24.4866 10.3261 24.0178 9.85723C23.5489 9.38839 22.913 9.125 22.25 9.125H9.75ZM13.1875 11.625C12.6902 11.625 12.2133 11.8225 11.8617 12.1742C11.51 12.5258 11.3125 13.0027 11.3125 13.5C11.3125 13.9973 11.51 14.4742 11.8617 14.8258C12.2133 15.1775 12.6902 15.375 13.1875 15.375C13.6848 15.375 14.1617 15.1775 14.5133 14.8258C14.865 14.4742 15.0625 13.9973 15.0625 13.5C15.0625 13.0027 14.865 12.5258 14.5133 12.1742C14.1617 11.8225 13.6848 11.625 13.1875 11.625ZM9.96 18.8775C10.2027 18.2168 10.6423 17.6465 11.2195 17.2436C11.7967 16.8407 12.4836 16.6247 13.1875 16.6247C13.8914 16.6247 14.5783 16.8407 15.1555 17.2436C15.7327 17.6465 16.1723 18.2168 16.415 18.8775C16.4669 19.0191 16.4659 19.1747 16.4122 19.3156C16.3584 19.4565 16.2555 19.5732 16.1225 19.6442C15.2191 20.1254 14.211 20.3764 13.1875 20.375C12.164 20.3764 11.1559 20.1254 10.2525 19.6442C10.1195 19.5732 10.0166 19.4565 9.96281 19.3156C9.90906 19.1747 9.90806 19.0191 9.96 18.8775ZM18.5 12.875C18.3342 12.875 18.1753 12.9408 18.0581 13.0581C17.9408 13.1753 17.875 13.3342 17.875 13.5C17.875 13.6658 17.9408 13.8247 18.0581 13.9419C18.1753 14.0592 18.3342 14.125 18.5 14.125H21.625C21.7908 14.125 21.9497 14.0592 22.0669 13.9419C22.1842 13.8247 22.25 13.6658 22.25 13.5C22.25 13.3342 22.1842 13.1753 22.0669 13.0581C21.9497 12.9408 21.7908 12.875 21.625 12.875H18.5ZM17.875 16C17.875 15.8342 17.9408 15.6753 18.0581 15.5581C18.1753 15.4408 18.3342 15.375 18.5 15.375H21.625C21.7908 15.375 21.9497 15.4408 22.0669 15.5581C22.1842 15.6753 22.25 15.8342 22.25 16C22.25 16.1658 22.1842 16.3247 22.0669 16.4419C21.9497 16.5592 21.7908 16.625 21.625 16.625H18.5C18.3342 16.625 18.1753 16.5592 18.0581 16.4419C17.9408 16.3247 17.875 16.1658 17.875 16ZM18.5 17.875C18.3342 17.875 18.1753 17.9408 18.0581 18.0581C17.9408 18.1753 17.875 18.3342 17.875 18.5C17.875 18.6658 17.9408 18.8247 18.0581 18.9419C18.1753 19.0592 18.3342 19.125 18.5 19.125H21.625C21.7908 19.125 21.9497 19.0592 22.0669 18.9419C22.1842 18.8247 22.25 18.6658 22.25 18.5C22.25 18.3342 22.1842 18.1753 22.0669 18.0581C21.9497 17.9408 21.7908 17.875 21.625 17.875H18.5Z" fill="#003D5A"/>
  </g>
  <defs>
    <filter id="filter0_di_254_83088" x="7.25" y="9.125" width="17.5" height="14.3875" filterUnits="userSpaceOnUse" color-interpolation-filters="sRGB">
      <feFlood flood-opacity="0" result="BackgroundImageFix"/>
      <feColorMatrix in="SourceAlpha" type="matrix" values="0 0 0 0 0 0 0 0 0 0 0 0 0 0 0 0 0 0 127 0" result="hardAlpha"/>
      <feOffset dy="0.6375"/>
      <feComposite in2="hardAlpha" operator="out"/>
      <feColorMatrix type="matrix" values="0 0 0 0 1 0 0 0 0 1 0 0 0 0 1 0 0 0 0.5 0"/>
      <feBlend mode="normal" in2="BackgroundImageFix" result="effect1_dropShadow_254_83088"/>
      <feBlend mode="normal" in="SourceGraphic" in2="effect1_dropShadow_254_83088" result="shape"/>
      <feColorMatrix in="SourceAlpha" type="matrix" values="0 0 0 0 0 0 0 0 0 0 0 0 0 0 0 0 0 0 127 0" result="hardAlpha"/>
      <feOffset dy="0.6375"/>
      <feComposite in2="hardAlpha" operator="arithmetic" k2="-1" k3="1"/>
      <feColorMatrix type="matrix" values="0 0 0 0 0 0 0 0 0 0 0 0 0 0 0 0 0 0 0.5 0"/>
      <feBlend mode="normal" in2="shape" result="effect2_innerShadow_254_83088"/>
    </filter>
  </defs>
</svg>
