<svg width="32" height="32" viewBox="0 0 32 32" fill="none" xmlns="http://www.w3.org/2000/svg">
<rect width="32" height="32" rx="8" fill="#FFE9C8"/>
<path d="M14.75 21.625C14.5842 21.625 14.4253 21.6908 14.3081 21.8081C14.1908 21.9253 14.125 22.0842 14.125 22.25C14.125 22.4158 14.1908 22.5747 14.3081 22.6919C14.4253 22.8092 14.5842 22.875 14.75 22.875H17.25C17.4158 22.875 17.5747 22.8092 17.6919 22.6919C17.8092 22.5747 17.875 22.4158 17.875 22.25C17.875 22.0842 17.8092 21.9253 17.6919 21.8081C17.5747 21.6908 17.4158 21.625 17.25 21.625H14.75Z" fill="#5F2700"/>
<path fill-rule="evenodd" clip-rule="evenodd" d="M13.1875 6.625C12.4416 6.625 11.7262 6.92132 11.1988 7.44876C10.6713 7.97621 10.375 8.69158 10.375 9.4375V22.5625C10.375 23.3084 10.6713 24.0238 11.1988 24.5512C11.7262 25.0787 12.4416 25.375 13.1875 25.375H18.8125C19.5584 25.375 20.2738 25.0787 20.8012 24.5512C21.3287 24.0238 21.625 23.3084 21.625 22.5625V9.4375C21.625 8.69158 21.3287 7.97621 20.8012 7.44876C20.2738 6.92132 19.5584 6.625 18.8125 6.625H13.1875ZM12.25 9.4375C12.25 8.92 12.67 8.5 13.1875 8.5H14.125V8.8125C14.125 9.33 14.545 9.75 15.0625 9.75H16.9375C17.455 9.75 17.875 9.33 17.875 8.8125V8.5H18.8125C19.33 8.5 19.75 8.92 19.75 9.4375V22.5625C19.75 23.08 19.33 23.5 18.8125 23.5H13.1875C12.9389 23.5 12.7004 23.4012 12.5246 23.2254C12.3488 23.0496 12.25 22.8111 12.25 22.5625V9.4375Z" fill="#5F2700"/>
</svg>
